<svg id="Ebene_1" data-name="Ebene 1" xmlns="http://www.w3.org/2000/svg" viewBox="0 0 874.81 483.32"><defs><style><style>.cls-1{
fill:none;
stroke:#fff;
stroke-width:4px;
stroke-miterlimit:10;
stroke-dasharray: 4000;
stroke-dashoffset: 4000;
-moz-animation: dash 4s ease-in-out forwards;
-webkit-animation: dash 4s ease-in-out forwards;
-o-animation: dash 4s ease-in-out forwards;
animation: dash 4s ease-in-out forwards;
}
@keyframes dash {
to {
stroke-dashoffset: 2100;
}}</style></style></defs><title>lotenlogo drei köpfe weiß</title><path class="cls-1" d="M6883.22,7078.06c-6.6-12.29-19.88-21.8-32.85-26.31-5.84-2-12.91-2.93-18.75-.38-7,3-10,9.47-12,16.39-1.87,6.29-2.17,13.38,2.26,18.63,4,4.75,11.32,5.72,17.1,6.2,9.06.75,18.3.09,26.9-3,9.9-3.5,18.43-10.24,26.61-16.62,1.34-1.05-.42-3.3-1.82-2.35-35.11,23.74-59.45,60.86-82.54,95.57a1.52,1.52,0,0,0,.9,2.2c14,5,28.32,9.17,42.29,14.32a177.69,177.69,0,0,1,23.06,10c2.85,1.54,11.1,5.51,10.25,9.82-1.13,5.71-17.66.81-20.94.08-8.51-1.9-16.5-3.93-25.26-4-10.37-.07-20.84-.42-31,1.88s-19,8.36-26.36,15.76a1.5,1.5,0,0,0,.66,2.5c32.54,7.3,79.54,15.83,104.48-13l-2.36-.3c11.08,24.32-26.47,36.06-43.36,38.95-15.79,2.69-56.64,3.89-52.71-22.13h-2.89c5.34,23.75,14,47.23,29.55,66.24,14.53,17.7,36.34,30.16,59.72,25.81,22.43-4.18,39.57-23.2,51.65-41.26,14.55-21.75,23.79-46.87,29.91-72.17a375.13,375.13,0,0,0,7.21-40.47c1.78-13.8,3.59-28,3.68-41.94.12-16.8-7.16-35.23-17.77-48.07-4.43-5.35-10.69-10.34-17.82-11.09-8.21-.87-15.12,3.55-20.65,9.2-3.3,3.37-6.64,8.31-4.7,13.18,1.77,4.45,7,6.45,11.25,7.59,13.77,3.71,30.41,1.32,43.23-4.53,16.36-7.48,23.79-27.4,18.4-44.15-6.31-19.59-25.55-33.57-41.46-45.11-18.8-13.63-41.73-17-64.49-17.52-10.91-.23-22.18-.07-32.71,3-9.47,2.8-18,8.15-25.31,14.68-16.13,14.36-25.91,35-32.76,55.1-8.12,23.79-12.13,49.16-15.31,74-3.25,25.48-4.57,51.28-2.91,76.93,3.34,51.61,21.67,108.54,74.07,128.74,1.8.7,2.58-2.2.79-2.89-39.66-15.29-59.68-53.51-67.67-93.23-10.24-50.91-4-104.92,6.48-155.23,8.81-42.16,30.05-94.86,79.72-97.85,23.52-1.42,50.79-.23,71.61,12,9.34,5.48,18.15,12.86,26.2,20.05,8.41,7.52,16.32,16.31,20.45,26.94,4.48,11.53,1.6,23.11-5.28,33-4.55,6.52-12.23,9.8-19.63,11.92a72.66,72.66,0,0,1-24.06,2.52c-5.42-.31-13.53-1.19-17.15-5.89-4.49-5.85,5.55-13.71,9.48-16.36,7.71-5.18,16.32-3.51,23.2,2.13,13.7,11.24,21.23,32.73,21.79,50,.45,13.53-1.82,27.7-3.45,41.12a375.8,375.8,0,0,1-7.71,43c-6.31,26.08-16.41,51.55-31.81,73.63-13.78,19.77-34.46,38.5-60.13,36.84-27-1.74-46.91-25.67-58.2-48-6.8-13.44-11.23-28-14.52-42.68-.31-1.38-2.67-1.49-2.89,0-4,26.31,31.33,28.58,49.27,26.78,13.16-1.31,26.53-4.85,38-11.54,8.55-5,16.71-12.94,16.62-23.51a23,23,0,0,0-2.35-9.26,1.5,1.5,0,0,0-2.35-.31c-24.15,27.89-70.09,19.26-101.56,12.21l.66,2.51c9-9,19.3-14.64,32-16.19a130.74,130.74,0,0,1,16-.63c5.4,0,11-.33,16.33.54,9.16,1.49,18,4.39,27.24,5.57,4.38.56,11.78,1,12.91-4.72.83-4.14-3.44-7.44-6.34-9.54-6-4.34-13.11-7.23-19.91-10-15.68-6.44-31.94-11.26-48-16.67-1.18-.4-2.35-.81-3.52-1.23l.9,2.2c22.79-34.26,46.79-71.05,81.45-94.49-.6-.79-1.21-1.57-1.82-2.36-7.49,5.85-15.2,11.71-24,15.38-7.37,3-15.28,3.67-23.16,3.52-5.74-.11-11.92-.58-16.94-3.63-6.67-4.06-5.12-12.86-3.25-19.11,9.07-30.37,48.36-4.89,57.7,12.53.91,1.7,3.5.19,2.59-1.52Z" transform="translate(-6762.81 -6957.68)"/><path class="cls-1" d="M7239,7074.09c-8.85-5.61-17.2-12.42-27.52-15.17-8.78-2.34-17.61,3.11-17.14,12.83.42,8.47,10.53,12.44,17.54,13.54,9.42,1.47,19.82-1.13,25.55-9.15l-2.74-1.15c-7.78,28.25-33.6,50.35-34.7,80.84-.19,5.22.64,12.71,4.41,16.67,4,4.15,9.63,4.06,15,4.42,17.78,1.19,37.06,16.57,43.69,32.83l2.2-1.69c-12.33-6.52-28.1-8.55-41.8-9.44-10.68-.69-33.18-.92-37.14,12.62-4.68,16,18.33,15.89,28.31,15.72,8.79-.14,17.6,0,26.2-2.08,10.34-2.48,18.67-9.14,25.78-16.76l-2.5-.66c2.23,9.22.4,17.22-6.82,23.53-6.07,5.31-14.22,8.2-21.58,11.15-9,3.59-16.93,5.12-25.71,0-9-5.29-15.19-15.08-20.54-23.72a1.5,1.5,0,0,0-2.74,1.15c8.07,42.38,27.22,87.81,70,104.89,43.39,17.31,90.27-2.64,119.84-35.63,31.89-35.57,48.5-87.2,42.95-134.67a113.17,113.17,0,0,0-28.55-63.46,145.45,145.45,0,0,0-61.36-39.82c-11.23-3.68-23.26-5.34-35-3.76-7.65,1-18,3.8-22.69,10.6-8.52,12.3,7.76,23.46,17.65,27.14,16.28,6.06,39.46,1.83,50-12.9,13.11-18.35-2.17-37.61-18.48-46.67-16.55-9.2-36.13-13.14-54.6-16.34a313,313,0,0,0-58.87-4.6c-38.62.69-78.46,9.57-110.12,32.61-36.64,26.66-56,71.33-57,116-1.22,54.78,36.48,100.68,75.92,134.66,14.37,12.39,30.19,23.32,47.45,31.27a104.36,104.36,0,0,0,23.45,8c7.76,1.5,15.62,3.61,23.56,3.78,1.94.05,1.93-2.95,0-3-10.92-.23-22.88-3.13-33.25-6.52-12.69-4.15-24.55-10.64-35.69-17.91-23.39-15.28-43.76-35.3-61.39-56.87-18.18-22.24-32.47-46.8-36.15-75.72-3.44-27,2.2-56,13.53-80.61,36.56-79.61,134.26-91.44,211.17-77.57,19.09,3.44,39.37,7.9,55.8,18.65,9.88,6.47,18,17.13,16.32,29.52-1.64,12-13.77,19.27-24.42,22.21a43.5,43.5,0,0,1-29-1.86c-6.32-2.7-14.3-8-15.21-15.47-1.17-9.66,12.71-13.4,19.59-15,12.5-2.87,26.09-.21,38,3.71,24.41,8,47.07,24.34,63.36,44.07,16.67,20.19,23.61,46.41,23.92,72.2.6,49.46-21.62,101.19-60.22,132.56-30.77,25-74.65,33.18-110.29,13.5-35-19.3-50.36-60.72-57.43-97.81l-2.74,1.16c5.95,9.62,12.71,19.57,22.67,25.42,9.35,5.5,18.62,3.06,28-.71,8.29-3.31,16.82-6.72,23.42-12.92,7.07-6.65,8.2-16,6-25a1.52,1.52,0,0,0-2.51-.66c-6.6,7.07-13.92,12.91-23.3,15.68-7.88,2.33-16.2,2.07-24.32,2.24-7.46.15-35.26,1.05-26.81-13.48,6.39-11,26.19-9.44,36.71-8.57,12.06,1,26.11,3,37,8.78,1,.55,2.73-.38,2.2-1.7-5.74-14.07-19.14-25.8-33-31.64-6.33-2.66-12.23-3.17-19-3.77-8.87-.78-10.8-8.86-11-16.57-.39-15.21,8.41-30.19,15.56-43,6.85-12.26,15.28-24.49,19.05-38.18.47-1.72-1.79-2.48-2.75-1.15-4.9,6.85-13.66,8.59-21.61,7.83-6.52-.63-16.14-4.27-15.9-12.16.36-11.6,13.16-9.19,20.06-6,7.21,3.3,13.44,8.19,20.1,12.41,1.64,1,3.14-1.56,1.51-2.59Z" transform="translate(-6762.81 -6957.68)"/><path class="cls-1" d="M7569.12,7073c-7.64-4.07-33.34-13.74-32.53,2.95.42,8.6,7.1,11.78,14.91,12.16,6.8.34,15.84-2.41,16.26-10.38h-3c-.11,25.72-4.37,51.1-8.76,76.38-4,23-7.34,46-10,69.25-1.76,15.64-2.28,35,12.23,44.87,6.4,4.36,14.1,6.9,21.25,9.7s15.22,5.65,20.37,11.54l.66-2.51c-12.34,2.84-24.81,4.84-36.91,8.7-10.56,3.37-24,8.56-28.26,19.83a1.52,1.52,0,0,0,1.05,1.85c25.19,8.22,51.85-7.62,65.82-28.17l-2.75-.36c1.27,8.18,1.75,16.61-1.05,24.53-2.66,7.58-10.53,14.39-18.57,15.44-7.46,1-15.5-1.13-22.57-3.31-6.79-2.09-14.67-5.09-19.42-10.64-1-1.12-2.41-.08-2.56,1.06-2.61,19.91-.36,40.89,2.51,60.64,2.63,18.1,5.84,39,21.36,50.79,8.17,6.22,17.82,9.77,27.82,11.8a104.21,104.21,0,0,0,13,1.69c2.07.15,4.15.21,6.22.24,2.51,0,2.83-1.65,4.09-3.74,12.87-21.48,16.62-46.54,19.4-71,1.61-14.11,4.32-28.05,6.17-42.12a203.42,203.42,0,0,0,.87-44.19c-2.53-30-6.4-59.83-11-89.55-4.23-27.12-8.94-54.25-14.42-81.14-3.07-15.08-9-35.46-28.29-33-1,.12-2,1.22-1.29,2.25,4.65,6.42,12.08,12.21,18.64,4.71s5.31-19.13,5-28.26c-.78-23.47-4-47.68-18-67.21-10.66-14.92-28.48-31.08-48.14-29.93-20.23,1.18-31.92,25.45-37.22,42.14-7.09,22.33-7.29,46.58-6.5,69.77,1,29.48,3.45,58.89,6.68,88.21,3.42,31,7.56,61.91,10.37,93,2.77,30.55,5.07,61.13,8.33,91.63q2.09,19.56,4.93,39c.28,1.91,3.17,1.1,2.89-.79-9-60.7-11.54-122.18-18.86-183.08-3.8-31.68-7.6-63.37-9.67-95.23-1.6-24.64-3.19-49.6-.69-74.23,2.12-20.95,8-42.63,22.65-58.39,15.33-16.48,36.3-7,50.5,5.81,16,14.42,24.06,32.87,27.4,53.83,1.89,11.9,1.89,23.76,2.53,35.74a26.85,26.85,0,0,1-3.4,14.44c-4.4,7.82-11.05,2.62-14.89-2.68-.44.75-.87,1.5-1.3,2.26,23.23-2.92,25.43,30.61,28.32,46.55,5.68,31.45,11.42,62.82,15.76,94.49q3.41,24.95,5.79,50c1.5,15.69,2.5,30.95.87,46.68-1.58,15.25-4.67,30.3-6.59,45.5-1.69,13.34-3.32,26.8-6.25,39.94a115.43,115.43,0,0,1-9.95,27.54c-1.28,2.5-2.69,4.93-4.14,7.34-.81,1.36-3.26.7-4.67.64a101.16,101.16,0,0,1-12-1.27c-16.69-2.72-33.9-10.62-41.19-26.83-6.5-14.46-8.27-31.74-9.92-47.31-1.62-15.32-2.76-31.29-.75-46.63l-2.56,1.06c5.13,6,13.45,9.05,20.74,11.41,7.94,2.58,17.12,4.59,25.46,3.11,8.19-1.45,15.53-8.6,18.81-15.93,3.82-8.56,3-18.53,1.62-27.53-.22-1.4-2.1-1.31-2.74-.36-13.24,19.49-38.56,34.59-62.43,26.79.35.62.7,1.23,1,1.85,4.2-11.17,19.31-15.71,29.57-18.79,11-3.31,22.33-5.08,33.51-7.65a1.51,1.51,0,0,0,.66-2.5c-9.07-10.37-25.47-13-37.35-18.91-8-4-12.73-9.4-15.07-18.12-2.6-9.66-1.35-20.29-.19-30.07,2.83-23.83,6.4-47.45,10.49-71.1s7.77-47.39,7.87-71.42c0-2-2.9-1.92-3,0-.61,11.63-29.48,10.21-24.83-5.13,2.54-8.4,23.11.56,27.68,3,1.7.9,3.22-1.69,1.51-2.59Z" transform="translate(-6762.81 -6957.68)"/></svg>
