<svg id="Ebene_1" data-name="Ebene 1" xmlns="http://www.w3.org/2000/svg" viewBox="0 0 915.79 661.49"><defs><style>.cls-1{
fill:none;
stroke:#fff;
stroke-width:7px;
stroke-meterlimit:10;
stroke-dasharray: 7500;
stroke-dashoffset: 7500;
-moz-animation: dash 4s ease-in-out forwards;
-webkit-animation: dash 4s ease-in-out forwards;
-o-animation: dash 4s ease-in-out forwards;
animation: dash 4s ease-in-out forwards;
}
@keyframes dash {
to {
stroke-dashoffset: 0;
}}</style></defs><title>slow love logo</title><path class="cls-1" d="M6700.15,7095.78c.41-.33.55-.56,0,0Z" transform="translate(-6650.78 -6926.91)"/><path class="cls-1" d="M6679.12,7236.17l-.12.4a6.51,6.51,0,0,1,.23,1Z" transform="translate(-6650.78 -6926.91)"/><path class="cls-1" d="M6667.16,7302.21c0,.15,0,.26-.06.41C6667.23,7302.58,6667.34,7302.66,6667.16,7302.21Z" transform="translate(-6650.78 -6926.91)"/><path class="cls-1" d="M6765.59,7144.4a5.1,5.1,0,0,0,.67.53A7.87,7.87,0,0,0,6765.59,7144.4Z" transform="translate(-6650.78 -6926.91)"/><path class="cls-1" d="M6812.5,7062.65l-.3,0c.24.07.48.12.72.2Z" transform="translate(-6650.78 -6926.91)"/><path class="cls-1" d="M6811.09,7062.86c-1.5-.28.44-.24,1.11-.23a20.73,20.73,0,0,0-5-.6C6807.16,7062.33,6810.36,7062.56,6811.09,7062.86Z" transform="translate(-6650.78 -6926.91)"/><path class="cls-1" d="M6998.27,7145l-.23-.69A5.53,5.53,0,0,0,6998.27,7145Z" transform="translate(-6650.78 -6926.91)"/><path class="cls-1" d="M6768.83,7128.15c.41.16.84.44,1.21.62A4.82,4.82,0,0,0,6768.83,7128.15Z" transform="translate(-6650.78 -6926.91)"/><path class="cls-1" d="M6992.11,7110.75l-.6-.07C6991.83,7110.84,6992,7110.83,6992.11,7110.75Z" transform="translate(-6650.78 -6926.91)"/><path class="cls-1" d="M6679.23,7237.52l0,.52A2.32,2.32,0,0,0,6679.23,7237.52Z" transform="translate(-6650.78 -6926.91)"/><path class="cls-1" d="M6675.92,7363.24a.62.62,0,0,0-.25.43l.05.17Z" transform="translate(-6650.78 -6926.91)"/><path class="cls-1" d="M6899.26,7564.48a.37.37,0,0,0-.18-.17l-1.27.45A7.67,7.67,0,0,0,6899.26,7564.48Z" transform="translate(-6650.78 -6926.91)"/><path class="cls-1" d="M6706.71,7444c.09,0,.24.17.3.14-.31-.66-1.06-1.74-1.93-3.27l-3.22-5.51-.67,0c.84,1.49,1.8,2.9,2.69,4.35l1.36,2.17Z" transform="translate(-6650.78 -6926.91)"/><path class="cls-1" d="M6767,7519.89c-2.33-2.23-4.65-4.45-6.91-6.74,12.32,9.14,21.54,15.65,30.55,21.53a216.19,216.19,0,0,0,29.93,16.57l-1.44-.4c1.68.95,3.31,1.09,9.14,3.6,1.48.59,3.22,1.32,5.3,2.24l3.4,1.52,4,1.72,4.64,2c1.68.72,3.48,1.48,5.42,2.28,3.9,1.59,8.38,3.34,13.64,5.07l0,.12a25,25,0,0,1,4.47,1.1c-2.45-.79-4.87-1.62-7.25-2.52,4.48.86,8.48,1.24,14.52,2.11,1.27.31,1.68.62,1.78.83a94,94,0,0,0,15.22.66l2.36.32,2.32.25a19.68,19.68,0,0,0,4.38-1.47c1.53-.54,4-.89,10.08-1.54-2.36-.14-.9-.58.94-1s4-1,3.24-1.12c.63,0,2-.12,3.17-.21a95.33,95.33,0,0,0,12.82-4.55,54.16,54.16,0,0,0,9.42-5.12l-1.15.47c-.73.3-1.78.74-3.09,1.21a92.16,92.16,0,0,1-10,3.08,94.52,94.52,0,0,1-11.56,2.09,70.35,70.35,0,0,1-8.56.53c4.85-.63,5.47-.86,4.64-.8s-3.1.24-4.08.18l-.6.39a24.05,24.05,0,0,1-5.49.08,21.76,21.76,0,0,0-3.3-.27c0,.06.1.12.19.19l.36-.13c.28.1.13.2-.18.3.09.14-.17.31-1.75.37l.3-.09a59.72,59.72,0,0,1-8.45.17l0-.61a22,22,0,0,1-6.39-.16,75.82,75.82,0,0,1-10.1-2.15c-7.12-1.95-14-4.92-16.72-5.84-5.17-2.48-12.12-4.17-18.56-7.33-5.18-2.38-6.39-3.15-6.92-3.72a7.85,7.85,0,0,0-2.86-2.29c-6.25-3.42,1,1.26-1.6.06-2.46-1.45-4.84-3.06-7.23-4.61,4.42,2.22,2.21.66,1.51,0-1.61-.89-3.46-1.88-5.28-3l-5.46-3.38c-3.48-2.16-6.43-4-7.72-4-4.09-2.83-6-4.45-7.41-5.56s-2.2-1.84-4-3.05c1.06,1,3.3,2.73,3.2,2.93-3-2.63-1.67-.93-.37.06-2.68-1.45-8.93-6.3-14.56-10.92-2.81-2.32-5.48-4.58-7.58-6.21s-3.56-2.73-4-2.67l.15-.19c-1.72-.08-.51,2.06-4.21-.12-.67-.69-1.32-1.4-2-2.11l-3.6-2.35c-2-2.06-.78-1.37-.7-1.47a119.5,119.5,0,0,1-9.33-7.6c-3.25-2.92-6.6-6-9.71-8.87q2.46,4,5,7.93c-2.53-2.55-6-6.25-9-9.3s-5.59-5.58-6.42-5.73c-.88-1.18-1.65-2.4-2.47-3.59-1.11-1.38-2.07-2.51-2.89-3.44s-1.43-1.74-2-2.34a13.55,13.55,0,0,0-2.47-2.25,7.64,7.64,0,0,1-3.4-3.06l-1.88-3c-.64-1-1.16-2.07-1.74-3.09.71.92,1.35,1.9,2.11,2.78l2.23,2.69c-1-1.43-1.9-2.62-2.63-3.73l-1.91-3.11c-.58-1-1.15-1.9-1.71-2.91s-1.08-2.11-1.71-3.35l-.06,0c.18.34.28.57.25.65l-.55-.79a9.1,9.1,0,0,1-2.23-2.33c-.95-1.33-2.11-3.13-3.35-5.25-1.58-3.13-3.25-5.76-4.82-9.07-.81-1.64-1.66-3.4-2.45-5.48a74,74,0,0,1-2.47-7.08l-2-2.24c-.85-2.72-1.65-5.46-2.45-8.19l.75-.27c.71,2,1.62,4.33,2.63,6.95.53,1.29,1.09,2.64,1.67,4s1.16,2.83,1.82,4.24c2.49,5.73,5.51,11.46,8,16.05h.4a168.67,168.67,0,0,1-7.92-15.54c-.71-1.9-1.84-7,.06-3.76l-2.18-3.3c-2-4.88-3.35-8.6-4.47-11.76s-2-5.72-2.85-8.33c-1.7-5.22-3.25-10.63-6.47-21.45l.25,2c-.83-2.07-1.68-4.17-2.26-5.87a9.88,9.88,0,0,1-.75-3.68c-4-12.39-5.94-25.81-6-34.23-.4-.56-.8-1.13-1.17-1.71-.23-2.74.75-6.92-.61-8.15-.26-1.93-.6-3.87-.78-5.81,0-1.88-.21-3.39-.32-5a31.82,31.82,0,0,1,.18-5.37h0v0l.1-.8s-.05,0-.07,0c.3-4.24.1-4.22-.1-4.36s-.18-.18-.2-.88a29.87,29.87,0,0,1,.33-4.42,5.76,5.76,0,0,0-.12-3.51,11.29,11.29,0,0,1-.25-4.77c.57-1.56,1.2-3.1,1.84-4.62a64.13,64.13,0,0,0,1.32-9.75,92.69,92.69,0,0,1,1.76-12.68c1.78-5.79,3.58-8.31,3.68-4.22a39.78,39.78,0,0,1,.06-4.3c.09-.84.31-1.89.94-5.48.8-.94.66-.17.71,1.5,2.3-6,.6-3.95,2-8.6-.51-1.63-1.48-3.65-1.07-5.19l-.85,1.73a73.2,73.2,0,0,1,5.21-16.13l.37.38,2.07-6.1.73-.15c1.1-2.86,2.15-5.75,3.32-8.58l-.65,1.09c.4-1,1.23-3.17,2.23-5.52s2.18-4.88,3.2-6.65l.25.28c2.92-5,5.11-9.69,7.44-14.66,1.13-2.49,2.32-5,3.61-7.7.63-1.34,1.32-2.7,2-4.09.37-.7.74-1.4,1.11-2.12l.58-1.09c.2-.36.4-.74.58-1-.05.51-.15,1.22-.23,1.82.35-.45.62-.84.8-1.11a3.47,3.47,0,0,0,.35-.61,1.33,1.33,0,0,0,0-.78c-.08-.47-.15-1.07,1.4-2.89l.83.34a10.71,10.71,0,0,1,.63-1.31,9.61,9.61,0,0,1,.71-1,6.08,6.08,0,0,1,1.49-1.33,11.54,11.54,0,0,1,1.57-.89c.56-.27,1.09-.59,1.73-1-.6,0-1.18,0-1.77.08a47.94,47.94,0,0,1,4.47-3.37,13.72,13.72,0,0,1,2.86-1.51c.62-.21.93-.2,1.06-.05s-.21,1.09-.42,1.57c.49-.51,1-1,1.52-1.48s1-1,1.59-1.45l1.2.46a5.67,5.67,0,0,1,2.8-1.92,27.87,27.87,0,0,0,4.72-2.12c.55.18-.62.89,1.13.36a31.69,31.69,0,0,1,7.34-3.3,32.78,32.78,0,0,0-4.63,1.58l.19-1.57a13,13,0,0,1,5.86-1.38c.8,0,1.55.08,2.33.08a22.82,22.82,0,0,0,2.51,0c-.85.07-1.71.23-2.55.35a15.34,15.34,0,0,1,5.72.52,36.15,36.15,0,0,1,3.39,1.44c-.82-.53-2.19-1.4.07-.87,1.63.46.69.8,2.06,1.5a1.33,1.33,0,0,1,1.06-.17,7.2,7.2,0,0,1,.86.17,9.11,9.11,0,0,1,1,.4,9.71,9.71,0,0,1,2.11,1.31c.34.28.65.61,1,.93.15.16.32.32.46.49l.37.56a.46.46,0,0,1-.48,0c.34.29.64.47,1,.75a6.37,6.37,0,0,1,.5.52,5.25,5.25,0,0,1,.47.87c-.46,0-.91-.09-1.35-.11l1.2.9.63.47c.2.16.36.36.56.54a7.3,7.3,0,0,0,.67,1.46c.21.52.42,1,.63,1.48.44.87.52,1.59.16,1.54a5.79,5.79,0,0,0-.52-1.06,25.44,25.44,0,0,1,.93,7.81,33.34,33.34,0,0,1-1.5,8.14l-.9,0a4.06,4.06,0,0,1-.24,2.12,26.8,26.8,0,0,1-1.25,2.69,23.33,23.33,0,0,0-1.21,2.25c-.29.57-.34,1,.05,1.05-1.12,1.18-2.92,3.6-4.61,5.34-1.86,1.79-3.46,2.88-3.22,1.64a62.91,62.91,0,0,1-12.79,7.86c-1.12.52-2.31,1-3.55,1.46s-2.56.89-4,1.25a56,56,0,0,1-9.91,1.78c-.7-.05-1.56-.1-2.52-.1s-2.05,0-3.23.08l-3.79.17c-1.34.06-2.67.11-4.07.15a88.36,88.36,0,0,1-16.32-.87c-9.13-1.09-16.23-3.46-21.73-7.31a24.34,24.34,0,0,1-6.87-7.2,25.47,25.47,0,0,1-3.58-10.77c.25-2.66.51-5.66.93-9s1-6.89,1.81-10.56c1.51-7.32,3.94-14.68,7.21-20.21.27-1.17.53-2.35.86-3.5,2.49-3.53,5.13-8.21,8.42-13a69.17,69.17,0,0,1,11.75-13.73,51.38,51.38,0,0,1,3.3-4c-.43.35-1.12.82-1.65.67.65-.57,1.49-1.27,2.31-2s1.69-1.57,2.52-2.24c1.61-1.36,2.92-2.32,3.06-1.77-.2.21-.4.42-.59.64.12.53,2-1.22,4.38-3.29s5.29-4.3,7.11-5c-.78.08-1.54.21-2.32.32.89-.62,1.81-1.2,2.74-1.76s1.83-1.17,2.78-1.7c-.47.35-.91.74-1.36,1.11a79.22,79.22,0,0,1,16.07-9.68,87.39,87.39,0,0,1,14.83-5.11c9.74-2.44,19.31-3.65,32.89-4.86-1.8.59-.46.43,1.37.28s4.17-.23,4.34.42c6.79,1.74,12.76.22,18.54.27,0-.07.08-.13.42-.2,3.33.32,6.68.7,10,1.08-6.15,1,7.36-.62,1.72.2,13,1.92,28,3.8,43.5,6.18s31.4,5.25,46.19,8.81l-1.22-.69c7.52,1.74,17,3.46,22.49,5.55a39.9,39.9,0,0,0,8.67,1.94c2.76.36,5.14.54,6.24.79,6.43,1,11.53,4,9,3.12,3.27.84,6.5,1.4,10,2.28a41.75,41.75,0,0,1,11,4.38c1.07,1.27,6.62,3.74,10.83,7.16a25,25,0,0,1,5,5.14c1.05,1.57,1.47,2.76,1.17,3h.15c.21.6.41,1.2.61,1.8s.37,1.19.51,1.8l.22.9c.08.3.16.6.23,1l.47,2.12c.62,2.83,1.22,5.67,1.77,8.58a177.6,177.6,0,0,1,2.52,18.77,4.39,4.39,0,0,1-.32-.68q1.09,3.33,2.33,6.63l.63,1.64c.19.52.46,1.19.7,1.76.5,1.16,1,2.22,1.58,3.26,1.08,2,2.15,3.94,2.95,5.89a16.39,16.39,0,0,1,.93,3,11,11,0,0,1,.18,3.1,11.54,11.54,0,0,0,3-3.66,24.6,24.6,0,0,0,1.87-4.74c-.2-2.25-.56-4.33-.81-6.23-.12-.93-.23-1.84-.27-2.66,0-.43,0-.81,0-1.2v-1.37c-.06-3.78,0-7.54.23-11.4-.77-5.08-1.46-10.41-2.42-15.85q-.72-4.09-1.68-8.21l-.5-2c-.18-.71-.45-1.6-.68-2.38a36.19,36.19,0,0,0-1.87-4.72,38,38,0,0,0-5.47-8.36,46,46,0,0,0-7-6.53,69.91,69.91,0,0,0-15.46-8.67,184,184,0,0,0-24.81-9.06c-8.09-2.45-16.26-4.87-24.48-7.15a788.61,788.61,0,0,0-122.78-19.1c-3,.17-6,.36-9.05.61a121,121,0,0,0-41.79,2c-14.72,3.29-28.68,9.58-40.84,16.26l0,1.15a43.08,43.08,0,0,1-8,4.52,136.32,136.32,0,0,0-36.72,40,128.09,128.09,0,0,0-6.41,12.09c-1,2.05-1.84,4.17-2.73,6.27-.43,1.05-.81,2.13-1.22,3.19s-.8,2.14-1.14,3.22a123.19,123.19,0,0,0-3.68,13.14,81.74,81.74,0,0,0-1.94,13.87,50.57,50.57,0,0,0,1.33,14.77,38.09,38.09,0,0,0,2.61,7.3,36.7,36.7,0,0,0,4,6.65,42.15,42.15,0,0,0,11,10.25,57.72,57.72,0,0,0,6.32,3.49,64.55,64.55,0,0,0,6.5,2.58,89.55,89.55,0,0,0,26,4.23,119.61,119.61,0,0,0,12.62-.34c4.08-.3,8.17-.74,12.23-1.38a69.06,69.06,0,0,0,15.73-3.58,106.85,106.85,0,0,0,14.43-6.35c1.19-.84,2.35-1.76,3.52-2.66s2.28-1.9,3.35-2.94,2.16-2,3.2-3.25l1.56-1.78c.51-.6.94-1.24,1.42-1.87a50,50,0,0,0,8-16.6,45.64,45.64,0,0,0,1.16-18.66,34.33,34.33,0,0,0-8.18-17.65l.75.69a32.7,32.7,0,0,0-9.59-7.67c-.41-.3-.41-.44,0-.32a46.19,46.19,0,0,0-10.72-3.52,50.07,50.07,0,0,0-12.44-.88,51.48,51.48,0,0,0-12.64,2.31l-1.53.5c-.51.16-.92.33-1.39.5-.9.33-1.79.68-2.66,1s-1.75.72-2.59,1.11-1.68.75-2.49,1.16l.7-.49c-2.35,1.18-4.65,2.5-6.9,3.9a75.61,75.61,0,0,0-6.53,4.68,56.76,56.76,0,0,0-11.26,12.05c-.82,1.14-1.52,2.38-2.26,3.59l-1.71,3.11c-1.15,2.07-2.28,4.15-3.37,6.24s-2.21,4.17-3.26,6.28-2.14,4.2-3.15,6.32a357.55,357.55,0,0,0-20.73,52.18,278.8,278.8,0,0,0-11.17,55.24,229.44,229.44,0,0,0,1.65,57.61,158.44,158.44,0,0,0,6.26,27.67c.38,1.16.75,2.33,1.13,3.5l1.15,3.36,2.32,6.71q2.36,6.8,4.77,13.74c3.27,9.28,6.73,18.82,10.81,28.37a208.21,208.21,0,0,0,14.48,28.15c.22.44.61,1.14,1.16,2.05.28.46.59,1,1,1.53l1.25,1.78c.91,1.28,2,2.74,3.13,4.36l4.12,5.05a143.55,143.55,0,0,0,10.71,11.24c2,2,4,3.75,6.08,5.6s4.14,3.71,6.25,5.54c8.43,7.37,17.07,14.53,24.13,19.94,3.5,2.74,6.62,5,9,6.79S6766.24,7519.39,6767,7519.89Z" transform="translate(-6650.78 -6926.91)"/><path class="cls-1" d="M6878.16,7571l-.33,0C6877.79,7571.34,6878.31,7571.26,6878.16,7571Z" transform="translate(-6650.78 -6926.91)"/><path class="cls-1" d="M6737.57,7479.39l.39.35-1.09-1.75Z" transform="translate(-6650.78 -6926.91)"/><path class="cls-1" d="M6824.35,7540.18c-4.15-2.31-4.39-2.33-3.88-1.87A33.3,33.3,0,0,0,6824.35,7540.18Z" transform="translate(-6650.78 -6926.91)"/><path class="cls-1" d="M6919.91,7567.33c2.62-.67,1.55-.64,0-.5l-3.24.84-1.26.29C6916.87,7567.76,6918.38,7567.6,6919.91,7567.33Z" transform="translate(-6650.78 -6926.91)"/><path class="cls-1" d="M6908.28,7563.92l.73-.46C6907.54,7563.78,6907.62,7563.89,6908.28,7563.92Z" transform="translate(-6650.78 -6926.91)"/><path class="cls-1" d="M6988.92,7431.93a28.77,28.77,0,0,0,1.63-3.88A24.79,24.79,0,0,0,6988.92,7431.93Z" transform="translate(-6650.78 -6926.91)"/><path class="cls-1" d="M6990.56,7428v0l0,.06Z" transform="translate(-6650.78 -6926.91)"/><path class="cls-1" d="M7002.53,7131.7c.05.38.09.81.14,1.25C7002.63,7132.53,7002.59,7132.11,7002.53,7131.7Z" transform="translate(-6650.78 -6926.91)"/><path class="cls-1" d="M7006.57,7354.67l-.29-.28c.5-3.63.52-1,.88-4.37-.29-1.37.75-5.57.66-6.76,0,0,.25-1.61.38-1.49a12.85,12.85,0,0,1,.2-2.74c0-.38-.1.27-.21.54l.19-2.39c.19-.92.36-1.13.27-.11.19-1.56.57-4.58,1-8.35s1-8.28,1.43-12.81c1-9.07,1.8-18.2,2-21.55-.26.85-.31,2.92-.68,3.68,0-1.78.29-2.6.19-3.39.49-.64.44-3.88,1-5.18l-.2-.53.22-.87a84.23,84.23,0,0,1,.66-8.68c.29-4,.09-5.92.4-8.13,0,.33-.25,1.2-.23.16.23-.16.08-2.75.32-3.26,0-1,.29-4.35-.08-3.24.18-.56.44-3.52.45-1.74a23.2,23.2,0,0,0,.15-2.69l-.15,1.27a73,73,0,0,0,.27-7.4l-.18,1.24a18.85,18.85,0,0,1,.42-4.48l0,2.07c.09-3.34.13-5.36.05-8.14l0,1c-.11-1.77-.13-7.29-.26-12.76s-.32-10.91-.52-12.53l-.21,1.5-.22-2.8c0,.33.75,1.34.68,1.62,0-3-.23-12.29-.53-21.52s-.69-18.38-.8-21.15c0-2.24.34-.42.38-.4-.23-2.71-.3-1.16-.4-3.47,0-.63.18.13.23.48a11.89,11.89,0,0,0-.16-2c0,1.27-.32.75-.48,1.3l-.13-3,.19.12a22.6,22.6,0,0,1-.66-4.57c-.2-4.92-.63-10.25-.94-15.19a9,9,0,0,1,.39,2.13c0-.66-.14-1.67-.12-2.28-.09,1.2-.28-2.07-.29-1.13-.69-3.58-.69-8.3-1.27-11.46-.39-.27-7.32-6.19-7.78-6.12-.09-1-.18-2-.17-2.26a17.75,17.75,0,0,0,.22,3.21l.26.16c.32,2.34-.09.56.16,2.86-.19.14-.45-2-.65-3.83a20.12,20.12,0,0,0,.45,4c.07,1.58-.26-.15-.18,1.76a39.91,39.91,0,0,1,.55,4.67l0,0c.12,3.8.76,5.77.83,9.24l-.09-.36c0,1.23.29,3.63.32,5.85,0-.63.11-1.19.22.14.05,2.55.29,4.27.24,6.14l.31,1.78c.27,4.42.9,15.39,1.38,26.37s.76,22,.84,26.43l0-.35c.13,6.79.21,17.15,0,27.55-.07,2.59-.14,5.19-.2,7.74s-.21,5-.3,7.41-.27,4.65-.39,6.76-.26,4.11-.38,5.86c-.36,2.16-.56,5.16-.81,7.42.19-1.26.29-.81.2.17-.59,6.89.11.48-.4,7.46-.26,4-1.09,13.71-2.09,23.26s-2.13,19-2.63,22.5c-.13,3.85-.95,8.57-1.25,12.32l0-.39c-.17,2-1.12,8.66-2.11,15.38-.54,3.35-1.08,6.73-1.53,9.55s-.84,5.08-1,6.24l.14-.61c-.52,4-.73,3.44-1.38,6.59.41-.36-.09,3.1-.32,4.41l-.06-.06c-.34,2-.88,6.51-1.61,9.74l-.14-.16c-.42,2.73-1.6,7.79-2.13,9.69-.3,1.09-.65,2.33-1,3.67s-.76,2.77-1.25,4.21-.93,3-1.38,4.47-.85,3-1.32,4.43l-1.76,3.48-.14.55a10.53,10.53,0,0,0,2.3,3.16c1.37,1.14,3.25,1.44,5.23-2.25l.13.18.52-1.55c.73-1.83.84-2.75,1-2.57l-.91,2.53c.7-1.84.33-.51.18.23.29-.77.57-1.52.84-2.12.07-.39-.16.24-.3.52.14-.51.31-1.13.48-1.77a16.82,16.82,0,0,1,.55-1.91c.59-1.93.31,0,1-2.29a306.24,306.24,0,0,0,8.58-35.62c.12-.27.06.06,0,.42.6-3.68,1.12-6.95,1.66-10.3a7.26,7.26,0,0,1,.49-1.42c-.11.26.57-4.37,1.29-9.1.33-2.37.67-4.77.92-6.59S7006.55,7354.74,7006.57,7354.67Z" transform="translate(-6650.78 -6926.91)"/><path class="cls-1" d="M6912.5,7297.45c-.17-.45-.33-.63,0,0Z" transform="translate(-6650.78 -6926.91)"/><path class="cls-1" d="M6958.26,7428.24l-.41.19a9.17,9.17,0,0,1-.65.86Z" transform="translate(-6650.78 -6926.91)"/><path class="cls-1" d="M6895.12,7426.19l-.34-.14C6894.78,7426.18,6894.68,7426.28,6895.12,7426.19Z" transform="translate(-6650.78 -6926.91)"/><path class="cls-1" d="M6878,7372.48a3.06,3.06,0,0,0-.95.23A8.89,8.89,0,0,1,6878,7372.48Z" transform="translate(-6650.78 -6926.91)"/><path class="cls-1" d="M6869.43,7200.84l.08.24c0-.2,0-.41,0-.62Z" transform="translate(-6650.78 -6926.91)"/><path class="cls-1" d="M6870,7201.86c.14,1.25-.36-.26-.52-.78a13.37,13.37,0,0,0,.8,4.05C6870.58,7205.05,6869.94,7202.51,6870,7201.86Z" transform="translate(-6650.78 -6926.91)"/><path class="cls-1" d="M6902.45,7196l.51-.21A3.78,3.78,0,0,0,6902.45,7196Z" transform="translate(-6650.78 -6926.91)"/><path class="cls-1" d="M6885.9,7386.63l-.88.21A3.37,3.37,0,0,0,6885.9,7386.63Z" transform="translate(-6650.78 -6926.91)"/><path class="cls-1" d="M6925.19,7184.1l-.26-.49C6925,7183.91,6925.07,7184,6925.19,7184.1Z" transform="translate(-6650.78 -6926.91)"/><path class="cls-1" d="M6957.2,7429.29l-.44.38A3.16,3.16,0,0,0,6957.2,7429.29Z" transform="translate(-6650.78 -6926.91)"/><path class="cls-1" d="M6842.82,7409.51a.59.59,0,0,0-.15-.45l-.14-.05Z" transform="translate(-6650.78 -6926.91)"/><path class="cls-1" d="M6978.07,7437.25a.49.49,0,0,0-.23.07l-.05,1.15A6.06,6.06,0,0,0,6978.07,7437.25Z" transform="translate(-6650.78 -6926.91)"/><path class="cls-1" d="M6819.65,7429.31c.08,0,.2.14.26.11a30.88,30.88,0,0,0-1.45-2.78c-.35-.62-.76-1.32-1.2-2.08s-.83-1.65-1.3-2.55l-.65.05C6816.58,7424.61,6818.18,7426.92,6819.65,7429.31Z" transform="translate(-6650.78 -6926.91)"/><path class="cls-1" d="M6879.24,7483.6c-2.39-1.25-4.77-2.52-7.16-3.84l8.58,2.92c1.34.45,2.62.9,4,1.33s2.63.88,3.92,1.23a122.35,122.35,0,0,0,14.56,3.47,85.28,85.28,0,0,0,14.37,1.36,65.66,65.66,0,0,0,16.27-1.76l-1.28.49c1.77-.18,3.06-.9,8.59-2.8,1.37-.52,3-1,5-1.9,1-.43,2.05-.78,3.17-1.35l3.66-1.77,4.12-2.36c1.42-.92,2.95-1.92,4.53-3.06a76.17,76.17,0,0,0,9.93-8.89l.1.08a17.44,17.44,0,0,1,2.49-3.29l-2.33,2.55c-.76.84-1.64,1.62-2.46,2.42.6-.84,1.18-1.65,1.72-2.49s1-1.71,1.54-2.6,1-1.82,1.61-2.82,1.2-2,1.81-3.19c.67-.9,1.08-1.11,1.3-1.11l.78-1.43.71-1.44c.46-1,1-1.93,1.39-2.9.84-1.95,1.72-3.89,2.45-5.87.73-1.09,1.46-2.2,2.13-3.32a14.65,14.65,0,0,0,.24-3.91c.08-1.36.61-3.4,2.44-8.11-2.11,3.32.66-5-.24-3.93.27-.45.75-1.5,1.17-2.34.68-2.89,1.5-7,2.12-10.8a76,76,0,0,0,1.13-8.54l-3.89,11.58a124.24,124.24,0,0,1-6.4,15.67c1.35-3.88,1.39-4.43,1.11-3.8s-1,2.41-1.45,3.12l.11.61a19.21,19.21,0,0,1-2,4.18,16.64,16.64,0,0,0-1.45,2.4c.06,0,.15,0,.24-.07l0-.32c.2-.18.23,0,.21.25.17,0,.2.25-.29,1.49v-.27c-.15.49-.34,1.06-.56,1.66s-.5,1.23-.76,1.84c-.51,1.23-1,2.39-1.39,3.07l-.56-.22c-.18,1.88-3.14,7.3-7.06,12.12l-.72.91-.78.86-1.52,1.7c-1,1.09-2.09,2.05-3,3-2,1.73-3.59,3.11-4.51,3.84s-2,1.42-3,2.15-2.07,1.63-3.24,2.37a31.48,31.48,0,0,1-3.58,2.26l-1.93,1a21,21,0,0,1-2,.79,24.36,24.36,0,0,1-4.51,1.44,5.16,5.16,0,0,1-1.69.18,5.61,5.61,0,0,0-3-.09c-5.69.82,1.29.47-1,1l-3.5.19c-1.15.09-2.33,0-3.49,0,4-.51,1.77-.63,1-.78l-2.35.18c-.82,0-1.68,0-2.55,0-1.74,0-3.53-.16-5.18-.22s-3.17-.27-4.4-.26a6.44,6.44,0,0,0-2.67.26,45.45,45.45,0,0,1-4.65-1,26,26,0,0,1-2.68-.82c-1.39-.49-2.22-.74-3.89-1.18,1.07.51,3.3,1.1,3.27,1.36-3.07-1.15-1.55-.17-.26.21-2.51-.16-8.7-2.2-14.18-4.57-2.82-1.21-5.55-2.38-7.65-3.18s-3.56-1.28-3.92-1.06l.08-.23c-1.46.52,0,2.07-3.55,1.35-.7-.41-1.39-.84-2.08-1.27l-3.5-.9c-2.13-1.17-.93-1-.88-1.1-5.58-1.77-12.83-5.51-18.8-9,.83,1,1.75,1.93,2.63,2.91s1.8,2,2.74,2.9c-2.55-1.62-6.07-3.93-8.95-6-1.49-1-2.77-2-3.8-2.7a5.68,5.68,0,0,0-2.19-1.11c-.82-.89-1.52-1.91-2.27-2.84-2.09-2.07-3.36-3.56-4.37-4.48a12.33,12.33,0,0,0-2.2-1.65,6.11,6.11,0,0,1-3-2.33,24,24,0,0,1-1.55-2.52l-1.44-2.56,1.8,2.24a24.37,24.37,0,0,0,1.88,2.17,34.08,34.08,0,0,1-2.17-3.07c-.59-.92-1.12-1.73-1.62-2.52-.88-1.65-1.65-3.2-2.67-5.23,0,0,0,0-.05,0,.14.29.22.47.19.54a5.79,5.79,0,0,1-.45-.65,6.68,6.68,0,0,1-1.83-1.94,25.31,25.31,0,0,1-2.67-4.41c-.76-1.67-1.63-3.14-2.37-4.75-.36-.81-.73-1.64-1.12-2.5l-.58-1.33-.53-1.26a4.08,4.08,0,0,1-.12-2.3,15.68,15.68,0,0,1,1.2-3.77c-.13-.74-.21-1.51-.27-2.29A23.49,23.49,0,0,1,6813,7402a4.52,4.52,0,0,1,.36-.48l.33-.39a9.28,9.28,0,0,1,.69-.71l.55.62a6.3,6.3,0,0,0-.5.68l-.24.4-.11.2c-.07.13-.14.25-.2.38a23.63,23.63,0,0,0-1.47,3.49,20.82,20.82,0,0,0-.93,3.92c0,.3-.07.62-.08.89a5.71,5.71,0,0,0,0,.59,3.12,3.12,0,0,0,.27,1.13c.72,1.63,1.43,3.25,2.12,4.8.34.82.73,1.58,1.12,2.32s.74,1.45,1.09,2.14l.39,0-1.22-2.38-.64-1.2c-.19-.41-.38-.83-.56-1.24l-2.08-4.49a2.91,2.91,0,0,1-.23-1.71,7.1,7.1,0,0,1,1-2.29c.47-.63.84-.73.82.49a18.41,18.41,0,0,1,0-2.69c.26-.74.54-1.43.82-2.06.15-.31.29-.63.44-.91l.21-.42.16-.28a6,6,0,0,1,.86-1.21,2,2,0,0,1,1-.63,2.61,2.61,0,0,1,1.05.18l.67.2,1.91.52c1.29.34,2.62.8,4.11,1.26s3.12,1,5,1.67,4,1.41,6.47,2.36l-1.41-.88c1.79.45,3.58.91,5,1.36a7.36,7.36,0,0,1,2.91,1.43c10.58,3.73,21.57,8.2,28.45,11.43l1.85-.41c1.16.39,2.5,1.22,3.77,1.8s2.43.95,3.19.49c1.72.36,3.43.73,5.17,1,3.24.95,5.35,1,9,2.36h0l.69.27a.11.11,0,0,0,0-.08c3.67,1.1,3.72.81,3.87.67s.45-.3,4.69.85c2.64,1.22,3.28-.63,7.43.31,1.33.7,2.67,1.34,4,2a35.08,35.08,0,0,0,8.8,1.09l11.85,0a29.79,29.79,0,0,1,6.07.84c1,.36.81,1-1.15,1.63,2.71-.83,3.3-1.15,4.14-1.38.42-.13.89-.21,1.71-.43s2-.51,3.79-1.09c1.24.18.51.53-1,1.34,3.39-.47,4.39-1,5.14-1.43.37-.22.69-.44,1.24-.75s1.32-.62,2.53-1.2c.52-.76,1-1.66,1.48-2.51a6.34,6.34,0,0,1,1.69-2.05c-.6.26-1.21.51-1.83.72a55.11,55.11,0,0,0,12.61-11.76l.27.48A31.3,31.3,0,0,0,6975,7407l.73-.22a26.66,26.66,0,0,0,1.23-10.28,11.35,11.35,0,0,1-.13,1.42,29.5,29.5,0,0,0-1-6.53A42,42,0,0,0,6973,7384l.38,0a26,26,0,0,0-5-7.24,30.92,30.92,0,0,0-6.65-5.2,38.48,38.48,0,0,0-8-3.55,57.72,57.72,0,0,0-9-2l1.82-.39c-2.16-.76-2.51-.48-2.95-.24s-1,.51-3.57.12l-.2-.88a12.81,12.81,0,0,1-5,.09,33.52,33.52,0,0,0-4-.82l1.49,1.07c-1.93,0-3.83,0-5.73.12-6.2.28-3.95-1-3.11-1.7-1.38.46-2.73.94-4.07,1.42l-.95-.86c-2.82,1.59-3,.25-8.06,1.71-.48-.3.78-.73-1-.59l-8.14,2.84,4.93-1.5-.36,1.54c-5.07,2-7.13,1.1-10.78,2.15l2.49-.87c-6,1.41-6.43.85-9.88,1.11,1.1.08,2.78.21.37.81-1.78.37-1.05-.35-2.77-.23-.24,1-4.49,2.21-8.44,2.28a.53.53,0,0,1,.33-.4,8,8,0,0,1-3.2.58l.88-1.19-3.19,1.41c-2.23,0-5.37,1-5.14.26l1.22-.32a133.19,133.19,0,0,1-16.44.29l-.19-.87a4,4,0,0,1-2.05.37c-.88,0-1.9-.15-2.85-.26-1.89-.27-3.51-.48-3.34.27-1.44-.6-4.36-.88-6.62-1.39-.57-.11-1.1-.23-1.56-.35a7.59,7.59,0,0,1-1.12-.41c-.56-.27-.7-.55-.18-.84a94,94,0,0,1-12.32-4.18l-.7-.33-.36-.17-.18-.08-.07,0-.41-.13a2.88,2.88,0,0,1-.74-.45,1.5,1.5,0,0,1-.57-1.69,7.18,7.18,0,0,1,1.6-.3,4.67,4.67,0,0,1,.6.06h.34l.16,0,1.35-.12c3.6-.34,7.2-.72,10.26-1,17.26-2.28,28.4-3.9,46.06-6.07a53.38,53.38,0,0,0,8.89-.12c1.58-.13,3.21-.3,4.86-.5s3.49-.45,5.4-.81a34.79,34.79,0,0,0,12.21-4.44,19.37,19.37,0,0,0,2.84-2.11c.44-.39.88-.76,1.32-1.14s.79-.84,1.19-1.25a20.79,20.79,0,0,0,2.13-2.63,23.39,23.39,0,0,0,1.72-2.74c.2-.75.38-1.49.55-2.22l.25-2.18.38-.93.28-.95c.18-.65.34-1.32.5-2s.19-1.38.27-2.09c0-.36.08-.72.11-1.09l0-1.07a38.68,38.68,0,0,0-.91-8.85c-1.22-5.89-3.44-11.72-5.35-17.18-1.45-2.27-2.14-3.5-2.44-4,.18.46.37,1.2,0,1.63-1-3-4.16-8.4-3.07-8.43l.44.66c1.1-.05-4.59-8.21-5.38-11.64l-.1,2.16-2.47-5.28.88,1.3a190.56,190.56,0,0,1-14.25-27.05l-5.42-12.35c-1.93-4.29-4-8.85-6.57-14.05,2.15,2.46-2.18-4-1-4.77-.38-5.95-3.66-10-5.24-14.5-.06,0-.15,0-.31-.25-.61-2.68-1.18-5.36-1.64-8.06,1.27,2.24.65.87,0-.56s-1.27-2.92-.24-.82c-1.33-10.58-2.14-22.74-.36-35.08a46.89,46.89,0,0,1,1.88-8.62,20.58,20.58,0,0,1,3.57-6.7,11.62,11.62,0,0,1,5.38-3.61,15.23,15.23,0,0,1,3.48-.71,22.41,22.41,0,0,1,3.85,0c-.3-.15-.62-.32-.92-.44a44.9,44.9,0,0,1,8.95,1.13,27,27,0,0,1,7.71,2.89,36.75,36.75,0,0,0,6.19,2.74,30.35,30.35,0,0,1,4.46,1.85,15.27,15.27,0,0,1,4.89,4c.9,1.19,1.09,1.82.35,1.09a68.38,68.38,0,0,1,5.78,5.26,20.07,20.07,0,0,1,2.54,3.43,14.78,14.78,0,0,1,1.74,4.41,15.65,15.65,0,0,0,.46,3.72,23.38,23.38,0,0,1,.25,5.88,17.16,17.16,0,0,1-1.44,5.48c-.66,1.41-1.34,2.19-1.69,2l.07.12a35.25,35.25,0,0,1-9.63,8,31.72,31.72,0,0,1-13.69,4,2.77,2.77,0,0,1,.51-.29,82.13,82.13,0,0,1-21.69,5.06c2,1.91,4,3.77,6.21,5.56a81.57,81.57,0,0,0,21.54,2.42,54.1,54.1,0,0,0,14.69-5.57,36.78,36.78,0,0,0,12.56-11.42,32.72,32.72,0,0,0,4.89-25.17,36.81,36.81,0,0,0-2.77-8,46.27,46.27,0,0,0-6.65-10.93,62.48,62.48,0,0,0-8.73-8.71,58.34,58.34,0,0,0-28.58-13.52,52.47,52.47,0,0,0-7.8-.84,38.43,38.43,0,0,0-8.49.67,29.35,29.35,0,0,0-8.77,3.2,27.18,27.18,0,0,0-7.41,6.11,33.39,33.39,0,0,0-4.77,7.5,53.93,53.93,0,0,0-4.21,14.9,116.88,116.88,0,0,0-.75,27.95,146,146,0,0,0,5.13,27c.51,1.21,1.09,2.38,1.63,3.56s1.11,2.35,1.7,3.51c2.24,10.41,6.92,21.52,12.11,32.36s10.93,21.5,15.24,31.59l1.09,0c2.85,5.47,2.1,5.37,2.63,6.8,3.05,6,6.06,12,8.92,18l.54,1.12.47,1c.32.68.62,1.38.9,2.08s.57,1.39.82,2.09.52,1.41.74,2.11a42.07,42.07,0,0,1,1.9,8.28,19.14,19.14,0,0,1-.32,7.06,8.28,8.28,0,0,1-2.71,4.4,12.39,12.39,0,0,1-5.76,2.46c-1.31.27-2.75.48-4.31.66l-4.92.53c-13.35,1.41-26.56,2.76-39.51,4l-19.21,1.78-9.44.82-3.82.34a32.93,32.93,0,0,0-4.18.51,18.41,18.41,0,0,0-3.61,1.14,15.71,15.71,0,0,0-3.1,1.81,15,15,0,0,0-4.48,5.67,13.54,13.54,0,0,0-1,7,16.12,16.12,0,0,0,2.86,8,26,26,0,0,0,4,4.68c.39.39.85.73,1.27,1.09l.66.54.7.5a25.32,25.32,0,0,0,2.88,1.83l1.87,1.06c.59.34,1.21.62,1.79.93,1.18.61,2.31,1.18,3.38,1.65,2.09,1,3.86,1.7,4.84,2.27a109.78,109.78,0,0,0,28,3.74,198.76,198.76,0,0,0,26.91-1.73l-.64.19c2.7-.41,5.36-.87,8-1.34.35,0,.41.14.17.25,8.89-2.24,22.91-4.08,33.5-5.33l-.6.2c7.64-1.16,14.87-1.93,21.41-1.25a37.21,37.21,0,0,1,4.74.77,28.43,28.43,0,0,1,4.36,1.32,23.65,23.65,0,0,1,3.8,1.9,24.75,24.75,0,0,1,3.41,2.57,20.88,20.88,0,0,1,2.77,3.06c.43.53.73,1.1,1.1,1.64l.44.85.23.41.17.43a12.9,12.9,0,0,1,1,3.39,12.53,12.53,0,0,1,0,3.35,14.36,14.36,0,0,1-1,3.35,18,18,0,0,1-2,3.28,22.79,22.79,0,0,1-2.85,3,26,26,0,0,1-3.5,2.49,27.19,27.19,0,0,1-3.9,1.84,37.05,37.05,0,0,1-4.46,1.27,49.6,49.6,0,0,1-9.85.93c-6.86,0-14.44-1-21.77-2.12-14.73-2.35-29.19-6.59-43.86-12-7.21-2.9-14.89-5.82-23-8.56-4.07-1.37-8.26-2.69-12.56-3.92-2.13-.65-4.34-1.18-6.52-1.77-1.09-.3-2.19-.58-3.31-.83l-5.09-1.21a12.89,12.89,0,0,0-5.93.14,14.36,14.36,0,0,0-5.27,2.87,21.9,21.9,0,0,0-4.08,4.68l-.84,1.33-.41.71-.29.53c-.34.65-.67,1.3-1,2a39.72,39.72,0,0,0-2.74,8.18c-.15.74-.29,1.5-.4,2.3a26,26,0,0,0-.22,2.73,16.44,16.44,0,0,0,1,6.26l2.21,5.34c.65,1.68,1.5,3.33,2.28,5,1.49,3.35,3.37,6.59,5.19,9.85.38.78,1.4,2.44,2.92,4.75.74,1.16,1.79,2.38,2.87,3.78l1.73,2.17,2,2.21,2.21,2.34c.78.78,1.64,1.52,2.49,2.3s1.75,1.56,2.64,2.37l2.88,2.23c1,.73,1.94,1.56,3,2.23l3.15,2.09,1.59,1.05,1.63.95,3.29,1.9a175.59,175.59,0,0,0,25,11C6872.55,7481.56,6877.77,7483.21,6879.24,7483.6Z" transform="translate(-6650.78 -6926.91)"/><path class="cls-1" d="M6977.24,7456.22l-.14.25C6977.47,7456.66,6977.55,7456.21,6977.24,7456.22Z" transform="translate(-6650.78 -6926.91)"/><path class="cls-1" d="M6846.77,7456l.36.23-1.1-1.33Z" transform="translate(-6650.78 -6926.91)"/><path class="cls-1" d="M6930.36,7477.12c-1.87.29-2.87.36-3.31.44s-.36.13-.08.19A13.5,13.5,0,0,0,6930.36,7477.12Z" transform="translate(-6650.78 -6926.91)"/><path class="cls-1" d="M6988.77,7423.16c.57-2.13.12-1.37-.46-.19-.49,2.18-.89,3.69-.89,3.69C6987.86,7425.5,6988.36,7424.36,6988.77,7423.16Z" transform="translate(-6650.78 -6926.91)"/><path class="cls-1" d="M6980.93,7430.2l-.14-.74C6980.51,7430.7,6980.64,7430.68,6980.93,7430.2Z" transform="translate(-6650.78 -6926.91)"/><path class="cls-1" d="M7437.5,7537.59c-1.19.68-1.73,1.08,0,0Z" transform="translate(-6650.78 -6926.91)"/><path class="cls-1" d="M7310.23,7119.44l-.23,1.08c0,.82,0,1.59,0,2.32Z" transform="translate(-6650.78 -6926.91)"/><path class="cls-1" d="M7294.49,7291.75c0,.42,0,.7,0,1.09C7294.62,7292.74,7294.76,7292.94,7294.49,7291.75Z" transform="translate(-6650.78 -6926.91)"/><path class="cls-1" d="M7521.64,7011.52c-.53,1.38-.79,2.15-1,2.73C7521,7013.45,7521.25,7012.63,7521.64,7011.52Z" transform="translate(-6650.78 -6926.91)"/><path class="cls-1" d="M7164.85,7477.7l.44.62-1-1.62Z" transform="translate(-6650.78 -6926.91)"/><path class="cls-1" d="M7167.11,7480.39c2.06,3.25-.83-.71-1.82-2.07,1.09,1.82,2.23,3.62,3.43,5.38s2.58,3.4,3.93,5.08C7172.88,7488.57,7167.9,7482.16,7167.11,7480.39Z" transform="translate(-6650.78 -6926.91)"/><path class="cls-1" d="M7093.49,7403.89l1.06-1.42C7094.1,7403,7093.78,7403.48,7093.49,7403.89Z" transform="translate(-6650.78 -6926.91)"/><path class="cls-1" d="M7541.4,6999.52l-.67,2.71A24.68,24.68,0,0,0,7541.4,6999.52Z" transform="translate(-6650.78 -6926.91)"/><path class="cls-1" d="M7154.27,7333.42l.29-1.09C7154.13,7333.15,7154.12,7333.4,7154.27,7333.42Z" transform="translate(-6650.78 -6926.91)"/><path class="cls-1" d="M7310,7122.84l-.1,1.33C7309.94,7123.72,7310,7123.3,7310,7122.84Z" transform="translate(-6650.78 -6926.91)"/><path class="cls-1" d="M7327.86,7447.27c-.1.13,0,.49.11.9l.23.37Z" transform="translate(-6650.78 -6926.91)"/><path class="cls-1" d="M7449.64,6993.61a1.39,1.39,0,0,0,.19.45,14.67,14.67,0,0,1,2.33,2.52A11.07,11.07,0,0,0,7449.64,6993.61Z" transform="translate(-6650.78 -6926.91)"/><path class="cls-1" d="M7356.79,7474.05a6,6,0,0,0-.86-.1,47.7,47.7,0,0,0,10.83,2.5,60.35,60.35,0,0,0,18.48-.77l.73-.74A59.28,59.28,0,0,1,7356.79,7474.05Z" transform="translate(-6650.78 -6926.91)"/><path class="cls-1" d="M7409.58,7321.52c1.07,3.92,2.2,7.81,3.19,11.74l1.52,5.89,1.43,5.91c-5.6-18.66-11.25-34.57-16.81-48.93l-2.07-5.33q-1.07-2.61-2.1-5.17c-1.38-3.42-2.77-6.76-4.11-10a167.23,167.23,0,0,1-6.78-18.4,71.92,71.92,0,0,1-2-8.8,59.52,59.52,0,0,1-.66-8.75,68.42,68.42,0,0,1,.67-8.87,78.45,78.45,0,0,1,2-9c3.46-12.12,10.09-24.46,18.67-38.17l-1.71,3.16c2.64-3.92,4.1-7.25,12.68-20.6,2.14-3.36,4.72-7.36,7.75-12.31,1.52-2.46,3.07-5.22,4.82-8.17l2.57-4.66c.44-.81.9-1.64,1.36-2.47l1.35-2.6c3.75-7,7.71-15.23,12-24.85a358.58,358.58,0,0,0,12.93-33.65l.12,0c.5-1.83.69-2.75,1.05-4.11s.92-3.16,1.95-6.82c-.45,1.51-.84,3-1.33,4.54l-1.46,4.48c-.5,1.49-.95,3-1.48,4.47l-1.59,4.42c1.59-5.38,2.8-10.53,4.08-16.14.57-2.83,1.27-5.73,1.86-8.91.29-1.58.6-3.23.92-4.93.16-.86.32-1.73.49-2.62s.28-1.81.42-2.75c.64-3.16,1.06-4.22,1.3-4.51.27-1.52.38-3.1.55-4.65l.47-4.68c.15-1.57.16-3.17.25-4.74s.16-3.16.17-4.76l-.13-4.82-.07-2.41c0-.8-.12-1.58-.17-2.37-.27-3.16-.62-6.35-1.22-9.62a41.1,41.1,0,0,0-3.41-13.05,18.92,18.92,0,0,0-6.57-6.88,19.17,19.17,0,0,0-7.37-2.5,37.56,37.56,0,0,0-10.39.28l-6.95,1c-.28,0-.73.12-1.18.21l-1.36.26-1.41.29-1.4.43a35.72,35.72,0,0,0-5.9,2.38c3.17-1.28,3.8-1.26,3-.77-.41.26-1.18.66-2.15,1.16s-2,1.24-3.15,2-2.26,1.59-3.24,2.46-1.95,1.64-2.61,2.37c-1.37,1.43-2.05,2.24-1.21,1.6-.68.53-1.61,1.54-2.71,2.65-.57.54-1.06,1.2-1.6,1.82s-1.09,1.25-1.53,1.89a45.71,45.71,0,0,0-3.92,7.28,39.45,39.45,0,0,0-2.76,9.2c-.11.84-.23,1.7-.35,2.56s-.08,1.77-.11,2.66a22.85,22.85,0,0,0,0,2.51c0,.81.07,1.61.17,2.45a35.18,35.18,0,0,0,2.3,10.15,25,25,0,0,0,6,8.79,30.58,30.58,0,0,0,7.33,5.05,53.55,53.55,0,0,0,10.36,3.9l-2.95-1.14a57.8,57.8,0,0,1-7.88-3.9c-.81-.52-1.65-1.08-2.51-1.69l-1.29-1-.66-.53-.64-.61a23.61,23.61,0,0,1-4.66-5.94c-.3-.6-.66-1.17-.9-1.8l-.75-1.87a29.15,29.15,0,0,1-1-3.88,35.07,35.07,0,0,1-.56-3.93c-.07-1.3-.18-2.62-.15-3.91,0-.65,0-1.27,0-2s.11-1.4.16-2.1a14.19,14.19,0,0,1,.29-2.06l.39-2a39.06,39.06,0,0,1,2.76-7.62,44.35,44.35,0,0,1,8.82-12.31,38.64,38.64,0,0,1,10.7-7.47,27.75,27.75,0,0,1,9.24-2.42c-.73.08-1.54.28-2.25.41a12.45,12.45,0,0,0-2,.49,23.82,23.82,0,0,0-3.19,1.16,26.84,26.84,0,0,0-3.73,1.93,5.05,5.05,0,0,0-1.13.74c0,.05.2-.13.69-.37l2-1c.79-.43,1.78-.76,2.74-1.17s2-.62,2.92-.91a18.24,18.24,0,0,1,2.4-.42c.54-.21,1.09-.44,1.6-.6,3.62-.49,6.4-.85,8.64-.93a21.19,21.19,0,0,1,5.35.38,13.74,13.74,0,0,1,3.71,1.36,12.39,12.39,0,0,1,3.53,2.91s-.05-.27-.16-.46l-.76-.6c-.48-.53-.06-.39.57.15,0-.12.13-.08.65.37a13.15,13.15,0,0,1,2.34,3.25l-.47-.65c1.74,2.71,3,6.87,3.67,10.85a84.29,84.29,0,0,1,1.12,10.12l-.59.13a49.47,49.47,0,0,1,.45,6.3c0,.7,0,1.43.06,2.2s-.08,1.57-.12,2.41c-.09,1.67-.2,3.47-.31,5.37a180.05,180.05,0,0,1-4.76,25.81c-2.38,9.08-5.41,18.07-8.14,25.64-1.46,3.75-2.72,7.19-3.89,10.07s-2.14,5.26-2.79,7c-6.08,13.28-12.71,30.26-22.39,45.74-3.81,6.18-6.4,9.93-8.1,12.35a47.66,47.66,0,0,1-3.19,4.2c-1.23,1.38-1.49,1.22-5.77,7.21-10.39,15.23,2.62-2.75-1.38,3.46-4.26,6-8.43,12.12-12.28,18.52,3.14-5.69,3.87-7,3.52-6.67s-1.65,2.26-2.36,3.23c-2.43,4.18-5.13,9.07-7.57,14.29a97.83,97.83,0,0,0-6,16.22,66.54,66.54,0,0,0-2.37,14.8,47,47,0,0,0,.09,5.45,18,18,0,0,0,.52,3.45,65.31,65.31,0,0,0,1,9c.45,2.58,1,4.78,1.45,6.7,1,3.84,1.83,6.57,2.55,8.82,1.47,4.5,2.43,7.16,4.55,12.27-1.26-3.47-3.86-10.47-3.62-10.64,1.65,5,2.2,6.1,2.07,5.52s-.86-2.91-1.58-4.94l3.1,7.5c1.27,3.08,2.74,6.63,4.23,10.52,3.08,7.75,6.27,16.91,9.25,25.73,5.88,17.66,10.27,34.15,11.35,35.53l-.23.07c1,1.59,1.3.94,1.81,1.16s1.23,1.34,2.93,6.51c.5,2.37,1,4.74,1.44,7.13,1,3.49,2.11,7,3.07,10.49,1.39,7.21.3,3.76.18,3.79,2.21,8.55,4.45,18.89,6.28,29.78.5,2.71.9,5.47,1.34,8.24s.86,5.54,1.22,8.31l.57,4.15.2,1.47.15,1.25c.17,1.64.41,3.29.53,4.8l-.27,0,.33.08a54.2,54.2,0,0,0,.45-6.78v-.56l0-.7,0-1.41-.09-2.82c-.06-1.89-.11-3.77-.21-5.65.43,3.14.78,6.73,1.23,10.53.19,1.61.31,3.2.45,4.78l.21,2.36.11,1.16.05.57,0,.29,0,.14s0,.13,0,.1c-3.14-.35-6.11-.66-8.82-.89l-2.53-.21-2.54-.17c-1.66-.11-3.24-.21-4.72-.28-5.94-.31-10.28-.32-11.48-.07q-5.51-.54-11-1c-9.22-.42-15.45-.4-19.82-.27a76.62,76.62,0,0,0-8.72.64c-1.84.27-2.91.51-4.58.75l-3.05.45a38.9,38.9,0,0,0-4.81,1,15.91,15.91,0,0,0-5.41,2.59,11.07,11.07,0,0,0-4.3,10.81,16.16,16.16,0,0,0,2.31,5.87,16.29,16.29,0,0,1-2.54-5.81,11.59,11.59,0,0,1,.39-6.21,11.84,11.84,0,0,1,3.55-5.11,16.94,16.94,0,0,1,5.59-3,18.78,18.78,0,0,0-4.23,1.91,13.58,13.58,0,0,0-3.24,2.8,12.35,12.35,0,0,0-2,3.48,12.12,12.12,0,0,0-.68,3.71,14.34,14.34,0,0,0,1.68,6.81,16.74,16.74,0,0,0,.84,1.49c.29.49.63.94.88,1.31a26.85,26.85,0,0,0,1.75,2.13,25.38,25.38,0,0,0,1.87,1.87c.64.59,1.26,1.07,1.89,1.6l.95.78,1,.73c.68.47,1.34,1,2.06,1.43a49.24,49.24,0,0,0,9.83,4.91,1.49,1.49,0,0,0,.18,0,14,14,0,0,1-1.84-.77l2.7.87c1.25.11,4.42.88,9.05,1.34a65.9,65.9,0,0,0,17.6-.54,62.88,62.88,0,0,0,17.09-5.5l1.44-.73c.35-.17.7-.37,1.05-.57.71-.39,1.4-.83,2.12-1.27,1.42-.91,2.87-1.92,4.31-3a56.57,56.57,0,0,0,4.84-4.23c.38-.37.75-.75,1.11-1.13l.27-.28.14-.14s.06-.1,0,0v.14c0,.36,0,.72,0,1.09a19.14,19.14,0,0,1-.65,4.55,4.18,4.18,0,0,1,1.38,2.2,27.63,27.63,0,0,1-8,10.57l-.75-.42a19,19,0,0,0,6-9.74,14.38,14.38,0,0,0,.39-3.29,15.79,15.79,0,0,0-.11-1.68c0-.29-.09-.56-.13-.84l0-.11s0,0,0,0l0,0-.15.17-.31.34a47.87,47.87,0,0,1-5.24,5,38.43,38.43,0,0,1-3.19,2.31c-.54.34-1.08.68-1.63,1l-.82.45-.94.48a70.24,70.24,0,0,1-8.24,3.4c-1.36.5-2.75.86-4.1,1.26s-2.73.7-4.07.94l-.46.46c1.54-.25,3.08-.67,4.63-1.05s3.05-.87,4.55-1.43,3-1.13,4.45-1.72l2.16-1c.36-.16.72-.33,1.06-.51l.61-.31a35.75,35.75,0,0,0,5.74-3.86c1.54-1.26,2.85-2.49,3.79-3.43l.9-.82c.05-.1,0,.11,0,.23l-.07.4c-.05.27-.1.53-.17.79a13.2,13.2,0,0,1-.46,1.46,5.74,5.74,0,0,1-1.14,1.91c-.38.35-.72.41-1.08.13a2.31,2.31,0,0,1,1.55,1.32,13.94,13.94,0,0,1-2.84,5.48,16.27,16.27,0,0,1-1.83,1.87c-.32.28-.62.52-1,.78l-1.14.81c-.39.28-.8.52-1.19.78a36.59,36.59,0,0,1-4.69,2.59,35,35,0,0,1-4.58,1.8,36.36,36.36,0,0,1-4.49,1.12c-.75.1-1.46.25-2.23.31l-2.3.18a17.78,17.78,0,0,1-2.31.06c-.78,0-1.56,0-2.35,0l-2.39-.21c-.4,0-.8-.05-1.21-.11l-1.23-.2a49.94,49.94,0,0,1-10.52-2.81,60.1,60.1,0,0,1-12-6.15,71.5,71.5,0,0,1-13.19-11.19c.92,1.2,1.94,2.33,3,3.46a71.37,71.37,0,0,1-10-10.79c-.63-.88-1.23-1.71-1.78-2.49s-1-1.54-1.4-2.22a16.88,16.88,0,0,1-1.62-3.16c-8.41-13.83-13.76-30-17.92-45.18a254.06,254.06,0,0,1-7.58-39.82c-.58-1.52-1.08-3.06-1.63-4.6-.24-1.76-.42-3.76-.59-5.81s-.26-4.18-.39-6.18c-.31-4-.62-7.53-1.46-9.2-.69-5.05-1.25-10.15-1.85-15.24-.73-9.83-1.71-15.81-2-27.11h0V7295c0-.7,0-1.43-.05-2.13,0,0-.05.06-.07.12-.63-11.22-.84-11.15-1.06-11.49s-.43-1.07-1.27-14c-.09-8.33-2-9-3.21-21.61l-.1-6.39.08-6c0-.66-.09-1.31-.13-1.94s0-1.25,0-1.86c0-1.21,0-2.36-.06-3.46-.1-2.2,0-4.24,0-6.17,0-1,0-1.9,0-2.82s.08-1.84.11-2.76c.08-1.82.15-3.63.23-5.52s.3-3.87.47-6,.51-4.45.81-7c.15-1.29.36-2.63.6-4.06s.5-2.91.76-4.5.64-3.25,1-5,.73-3.62,1.2-5.59,1-3.63,1.43-5.24.94-3.08,1.36-4.39a55.42,55.42,0,0,1,2.12-5.75c1.11-2.35,1.44-1.53.66,3.6,1.17-7,1.39-8.66,1.84-10.84s1.12-4.87,3.26-14.21c1.22-2.75.83-.71.2,3.49,2.43-8.17,3-10.77,3.29-12.88a99.85,99.85,0,0,1,1.94-10c-.08-3.94-.71-8.38.11-12.46l-1.33,4.77c2.34-13.32,5.22-27.8,9-43.05l.34.68,3.29-16.4.83-.9,2.42-11.69,1.21-5.84c.4-2,.81-4,1.17-6l-.81,3.25c.58-2.82,1.51-8.92,2.79-15.09a77.65,77.65,0,0,1,2.47-9.06,56.47,56.47,0,0,1,3.25-7.6c.05.15.1.31.16.46a96.48,96.48,0,0,1,5.2-8.56l2.93-4.13c.55-.74,1.08-1.5,1.61-2.26l1.43-2.09c.19-.25.24-.32.34-.43l.2-.21.32-.31,1.79-1.65,3.88-3.57,1.94-1.81,1-.91.9-.79c1.21-1,2.34-2.09,3.62-3.08l4-2.93c1.39-.93,2.84-1.83,4.27-2.76s3-1.76,4.53-2.64l2.34-1.31c.78-.44,1.62-.81,2.43-1.22a152.34,152.34,0,0,1,21.78-8.89c-1.33.68-2.68,1.31-4,2.06,1.36-.43,2.46-.7,3.31-1s1.5-.47,2-.65a7.87,7.87,0,0,0,1.83-1,10,10,0,0,1,2.22-1.14c1.25-.45,3.22-1,6.55-1.85l.87.65a56.63,56.63,0,0,1,13-3.11c1.71-.18,3.31-.32,5-.45s3.47-.17,5.53-.37l-4-.54c2.59-.33,5.17-.72,7.76-1l7.79-.71c4.29-.19,7.1-.21,8.86-.16s2.45.29,2.54.48c.19.4-2.07.77-3.29,1.19,1.92-.28,3.84-.38,5.77-.59s3.86-.42,5.79-.45l2.22,1.07a45.91,45.91,0,0,1,5.13-.3c1.51,0,2.83.15,4.36.29s3.23.29,5.52.44c1.12.08,2.39.15,3.85.22l4.85.25c1.12.51-2.45.32,2.3,1a52.05,52.05,0,0,1,10.59,1.67,25,25,0,0,1,8.54,4.46,25.74,25.74,0,0,0-10.51-5.18c.62-.31,1.25-.61,1.91-.91a7.2,7.2,0,0,1,1.16.34l1.09.38,1.05.36c.32.15.62.32.93.47l1.77.89,1.5,1.06a16.81,16.81,0,0,1,2.56,2.19,17.51,17.51,0,0,1,2.07,2.35,64.17,64.17,0,0,1,6.63,11.23c-.59-1-1.12-2.14-1.74-3.14l-1.9-2.93a50.35,50.35,0,0,1,2.69,4.85l1,2.13.46,1c.1.26.22.52.3.78a24.38,24.38,0,0,1,1.28,5.54c.21,1.7.31,3.28.41,5.06s.17,3.72.29,6.23c0-1.44,0-3.52.1-4.21s.32-.06.71,3.51a8.62,8.62,0,0,1-.11,3.61,20.4,20.4,0,0,0-.68,3,4.28,4.28,0,0,1,.14,2.43,57.2,57.2,0,0,1-1.2,5.95,97.79,97.79,0,0,1-5.56,15.92,2,2,0,0,1,.1-1.21c-.48,1.41-.81,2.5-1.32,3.82-.24.66-.54,1.37-.92,2.22s-.79,1.66-1.39,2.71c.12-1,.15-2,.23-3a49.24,49.24,0,0,1-3.51,8.4,46.27,46.27,0,0,1-6,6.9c-.49.4-.94.8-1.34,1.1l-1.06.67a1.58,1.58,0,0,1-.67.29c-.15,0-.21,0-.19-.14a9,9,0,0,0,1.12-.81l.57-.43.54-.5a21.2,21.2,0,0,1-1.95,1.34l-1,.49-.48.25-.47.15a8.37,8.37,0,0,1-3.53.63,7.93,7.93,0,0,0-.84-.07c-.28,0-.56-.16-.85-.22a4.73,4.73,0,0,1-1.45-.52,6,6,0,0,1-2.12-2,12.08,12.08,0,0,1-1.49-7.76,12.6,12.6,0,0,1,3.26-7.36c.3.11.59.22.87.35a3.29,3.29,0,0,1,.82-1.07,11,11,0,0,1,2.13-1.24,14.53,14.53,0,0,1,6.11-1.1,27.77,27.77,0,0,1,5.86.84c1.49.38,2.39.54,2.21.07a43.72,43.72,0,0,1,6.87,4.11c.61.5,1.24,1,1.84,1.54s1.17,1.06,1.75,1.73a38,38,0,0,1,3.21,3.95,35.51,35.51,0,0,1,3.94,7.08c.68,1.71.69,2.41-.2,1.39a136.75,136.75,0,0,1,6.81,20.87c1.81,6.88,3.42,13.44,4.89,20.26s2.8,13.92,4,21.88,2.13,16.79,2.73,27.07c-.14,7.35.37,21.08.36,36.32,0,7.61-.15,15.6-.4,23.34s-.69,15.22-1.2,21.84c-.75,13-1.84,24.75-3.09,36s-2.81,21.74-4.2,32.82-2.42,22-3.39,33.6-1.68,23.86-2.58,37.23c-2.25,16-3.67,35.86-7.15,55.5l-1.32,7.38q-.83,3.65-1.63,7.27c-1,4.87-2.43,9.57-3.74,14.21-.34,1.16-.63,2.32-1,3.45l-1.17,3.36c-.78,2.22-1.56,4.41-2.32,6.57s-1.71,4.21-2.56,6.25l-2.62,5.93-.7,2.22-.82,2.17-1.64,4.36-2,3.85c-.7,1.31-1.39,2.76-2.14,4l-1.12,1.93c-.38.65-.82,1.29-1.24,2s-.82,1.32-1.28,2l-1.39,2a133.81,133.81,0,0,1-13.73,16.27,217.92,217.92,0,0,1-37,29.86c-6.17,4.71-9.53,6.87-11,7.85,1.22-.72,3.13-1.73,4-1.7-3.85,2.32-9.62,5.77-14.5,8.21s-8.79,4-8.4,3.31c.67-.34,1.35-.68,2-1,.38-.72-5.62,2.29-13.28,5.42-3.82,1.56-8,3.23-11.93,4.55a101.16,101.16,0,0,1-9.91,3.05c1.88-.19,3.75-.49,5.62-.75-1.37.45-2.73.93-4.1,1.35l-4.12,1.24c-2.76.81-5.49,1.72-8.26,2.41l2.18-.72,2.17-.78c-2.2.81-4.39,1.43-6.54,2.1s-4.27,1.33-6.37,1.93l-6.21,1.62-3,.78c-1,.26-2,.44-3,.66-4,.83-7.85,1.72-11.65,2.23l-5.62.86c-1.85.23-3.69.38-5.5.56a145.52,145.52,0,0,1-78-13.5c-1.56-.75-3.17-1.43-4.74-2.24l-4.72-2.57c-1.59-.87-3.23-1.72-4.83-2.63s-3.18-1.91-4.79-2.92a194.38,194.38,0,0,1-19.58-14.42c3.85,2.59,1.15.49-2.42-2.57s-7.93-7.19-7.8-8c-1.41-1.7-2.83-3.34-4.23-5s-2.74-3.22-4.13-4.75-2.76-3-4.15-4.46l-2.07-2.13-2-2.18c-2.62-2.88-5.23-5.65-7.8-8.38-1.31-1.34-2.46-2.79-3.65-4.19s-2.35-2.82-3.49-4.24c0,0-.22-.06-.8-.67-1.26-1.7-2.57-3.37-3.78-5.11l-3.57-5.27c-2.35-3.52-4.85-7-7-10.62,9.37,12-10.8-14.85-2.28-3.73a376.45,376.45,0,0,1-24-47.23,368.33,368.33,0,0,1-18.23-54.74,341.36,341.36,0,0,1-9.24-58.91l-.39-7.45-.19-3.72c-.08-1.25-.1-2.47-.09-3.55a14.45,14.45,0,0,1,.71-5.13,4.7,4.7,0,0,1,2-2.46c1.88-1.21,5.68-1.33,8.93-.08a14.29,14.29,0,0,1,4.39,2.53,11,11,0,0,1,1.61,1.68,10,10,0,0,1,1.2,2l-.2-.62-.1-.31-.09-.24a8,8,0,0,0-.41-1,10,10,0,0,1,.77,1.18c.25.53.54,1,.79,1.58s.48,1.1.66,1.68.42,1.16.54,1.79a31.4,31.4,0,0,1,.91,8c0,5.72-1.2,11.86-2.5,17.81l11.78,3a123.67,123.67,0,0,1,7.19-19.09,163,163,0,0,1,10.32-18.66c.9-1.37,1.83-2.62,2.69-3.82s1.73-2.24,2.57-3.17,1.59-1.78,2.28-2.49,1.32-1.27,1.82-1.72a42.16,42.16,0,0,1,16.45-9.55c4.26-1.16,6-1.14,3-.38a44.5,44.5,0,0,1,11.3-1.91c3.77-.16,7.39.4,9.62,2.06a7.42,7.42,0,0,1,2.58,3.4,10.86,10.86,0,0,1,.28,5.27c-.68,4.12-3,8.83-6.39,13.31-.7.69-1.77,2-3.23,3.64s-3.52,4-5.65,6.52c-4.31,5.08-9.45,11.34-14.45,17.41-10,12.15-19.38,23.55-20.21,23.33l-.07.29c-21.2,23.08-39,46.71-61.71,71.68,0,0,.33-.56,1-1.5l-41.12,55.16,16.61-11.51,41.88-42.47,52.11-61.51L7189,7312.8l13-15.38,1.63-1.92.86-1,.89-1.09q1.76-2.21,3.35-4.56a55.78,55.78,0,0,0,5.54-10.29,33.18,33.18,0,0,0,2.57-10.11,23.26,23.26,0,0,0-.29-6,20.11,20.11,0,0,0-2.2-6.14,20.8,20.8,0,0,0-4-5.09,21.51,21.51,0,0,0-5.26-3.56,29.72,29.72,0,0,0-10.61-2.7c-13-1-25.34,3.21-35.58,9.74A74.87,74.87,0,0,0,7145,7266.3a89.19,89.19,0,0,0-10.76,14.18c-6.2,10-10.46,20.7-13.93,31.31l-.94,3.12,17.93,4.6c1.36-6.44,2.8-13.36,2.87-21.05a46.74,46.74,0,0,0-1.39-12c-.24-1-.62-2-.93-3.06s-.81-2-1.22-3-1-1.93-1.54-3a24.85,24.85,0,0,0-2.17-3.13,28.88,28.88,0,0,0-11.31-8.35,29.44,29.44,0,0,0-13.75-2.3,24.23,24.23,0,0,0-7.6,1.84,21,21,0,0,0-7,5,20.71,20.71,0,0,0-4.32,7.37,28.33,28.33,0,0,0-1.34,7.08c-.13,2.14-.09,4,0,5.72l.27,5,.53,9.94c.06,1.65.26,3.3.42,4.95l.5,4.95.5,4.94c.18,1.65.3,3.31.58,4.94l1.46,9.83.74,4.92.95,4.88,1.92,9.74c.29,1.64.7,3.24,1.09,4.85l1.18,4.82a366.8,366.8,0,0,0,69.4,141.52l7.78,8.43c1.31,1.39,2.55,2.84,3.93,4.17l4.08,4,3.89,4.5c1.32,1.51,2.63,3.05,4,4.52q4.16,4.47,8.7,8.89a190,190,0,0,0,19.89,16.95c3.62,2.66,7.4,5.2,11.34,7.58,2,1.17,4,2.24,6,3.36l3,1.66c1,.55,2,1.14,3.06,1.6l6.32,2.94,3.17,1.47,3.27,1.25,6.58,2.5c2.21.78,4.5,1.39,6.75,2.09,4.48,1.49,9.13,2.38,13.74,3.43.57.12,1.15.27,1.73.37l1.75.27,3.5.54,3.5.53,1.75.27,1.76.15,7,.6,1.76.15c.59,0,1.17,0,1.76.05l3.51.07,3.5.08c1.17,0,2.33.07,3.49,0l6.95-.26c2.32,0,4.6-.29,6.89-.49s4.56-.38,6.82-.64l6.73-.94,3.35-.46,3.29-.6,6.56-1.2c2.18-.39,4.3-.93,6.44-1.39s4.26-.92,6.35-1.42l6.22-1.6,1.09-1.33c2.31-.62,4.29-1.24,6-1.77l4.46-1.33,5.51-1.57c2.56-.7,3.43-.79,5.68-1.48a258.29,258.29,0,0,0,31.15-12.81c5.1-2.55,10.12-5.35,14.94-8.36s9.51-6.19,14-9.43a309.58,309.58,0,0,0,26.37-20.91c4.23-3.74,8.31-7.72,12.26-11.87a135.7,135.7,0,0,0,11.19-13.27c.9-1.15,1.72-2.38,2.55-3.6l1.25-1.83,1.17-1.91c.79-1.26,1.57-2.53,2.27-3.88s1.47-2.67,2-3.92l3.59-7.61c1.2-2.53,2.43-5,3.44-7.68,2.09-5.21,4.37-10.35,6.08-15.7l2.75-8,2.34-8.07c6.24-21.55,9.15-43.66,11.17-65.27.51-5.41.9-10.8,1.34-16.17s.79-10.69,1.19-16,.79-10.62,1.23-15.88.92-10.51,1.43-15.73q1.53-15.66,3.83-31l1.14-7.78c.41-2.61.77-5.23,1.13-7.84s.72-5.21,1.05-7.82.66-5.21,1-7.82c4.88-41.67,6.14-82.8,2.88-122.52a339.1,339.1,0,0,0-4.77-38c-1.32-7.45-2.82-14.75-4.19-20.93s-2.55-11.25-3.26-14.33a100.82,100.82,0,0,0-8-19.48,60.82,60.82,0,0,0-6.37-9.32c-.6-.75-1.25-1.47-1.92-2.17l-1-1.06-1.11-1-1.12-1.05-1.17-1-1.18-.95c-.41-.3-.82-.58-1.24-.87a43.75,43.75,0,0,0-10.7-5.52,39,39,0,0,0-12.17-2.23,32,32,0,0,0-12.84,2.36,23,23,0,0,0-3,1.47,27.18,27.18,0,0,0-3,1.87,24.45,24.45,0,0,0-5.14,5.17,28.28,28.28,0,0,0-5.11,12.58,29,29,0,0,0,1,13.4,24,24,0,0,0,3.27,6.52,21.09,21.09,0,0,0,5.61,5.4,20.31,20.31,0,0,0,7.1,2.94,13.68,13.68,0,0,0,1.8.37l1.87.17a18.49,18.49,0,0,0,3.72-.06,26.83,26.83,0,0,0,12.72-4.93,42.38,42.38,0,0,0,8.61-8.18,60.63,60.63,0,0,0,6.15-9.22c.87-1.59,1.68-3.26,2.42-4.88s1.33-3.06,2-4.59l-.67,1.9a182.69,182.69,0,0,0,8-23.73c.36-1,.5-1.1.37-.31.21-.88.41-1.79.62-2.71s.43-2.14.59-3.28a38.39,38.39,0,0,0,.31-7c-.1-2.28-.32-4.35-.52-6.36s-.45-4.18-.77-6.43a57.76,57.76,0,0,0-1.46-7.22,39,39,0,0,0-1.29-3.87c-.13-.31-.26-.67-.39-.93l-.38-.82-.75-1.65c-.52-1.09-1-2.2-1.57-3.3l-1.84-3.31c-.32-.55-.59-1.11-1-1.65l-1.11-1.64-1.12-1.63-.56-.81-.65-.79a41.19,41.19,0,0,0-12.71-11,51.32,51.32,0,0,0-15.36-5.29,124.26,124.26,0,0,0-14.24-1.7l-6.57-.45-6.27-.4c.7,0,1.3,0,2,0-1.45-.1-3.09-.13-4.65-.19L7467,6927c-1.57-.08-3.14,0-4.71,0l-4.71.07c-6.27.21-12.5.66-18.67,1.39a232.88,232.88,0,0,0-36.4,7.25c-5.94,1.67-11.8,3.63-17.59,5.81-2.9,1.08-5.75,2.35-8.62,3.52-1.42.64-2.82,1.32-4.23,2s-2.84,1.28-4.22,2.05c-2.76,1.52-5.56,2.88-8.25,4.63-1.35.84-2.72,1.65-4.05,2.53l-4,2.82a47.91,47.91,0,0,0-3.86,3.09c-1.25,1.06-2.62,2.19-3.6,3.14l-6.46,5.91c-.56.52-1.14,1-1.89,1.78a20.17,20.17,0,0,0-2.37,2.84l-1.28,1.9-1.17,1.7c-.76,1.05-1.7,2.43-2.59,3.73s-1.74,2.68-2.6,4a82.86,82.86,0,0,0-8.19,17.67c-1,3.09-1.79,6.2-2.46,9.24s-1.21,6-1.74,8.89-1,5.66-1.6,8.37l-1.8,8.53q-7.26,34.18-14.5,68.23c-.6,2.84-1.2,5.7-1.83,8.45s-1.24,5.55-1.93,8.34-1.35,5.56-2.07,8.35l-2.16,8.39c-2.92,11.21-5.95,22.53-8.51,34.11a245.24,245.24,0,0,0-5.44,35.63l-.3,4.56-.09,4.6c0,1.54-.09,3.07,0,4.61l.18,4.63c0,3.08.46,6.17.74,9.26l.23,2.29.26,2.14.53,4.29c2.73,22.9,4,46.23,5.8,69.9.92,11.83,1.92,23.75,3.42,35.74s3.42,24,6.05,36c.49,2.24.94,4.49,1.46,6.73s1.14,4.49,1.71,6.75l.87,3.38c.31,1.11.63,2.22.94,3.34.64,2.23,1.29,4.47,2,6.72a205.75,205.75,0,0,0,10.24,27.17,121.85,121.85,0,0,0,16.24,26.06,89.26,89.26,0,0,0,24.78,20.66,70.2,70.2,0,0,0,32.38,9.07c1.46,0,2.91,0,4.37-.07l4.38-.4a50.58,50.58,0,0,0,8.84-2,54.87,54.87,0,0,0,15.85-8.14l.57-.42.7-.56,1.39-1.14a33.42,33.42,0,0,0,2.66-2.36l1.28-1.21,1.17-1.26,1.18-1.26c.39-.41.7-.85,1.06-1.28a52.15,52.15,0,0,0,6.62-10.25,44.52,44.52,0,0,0,4.59-18.75,58.48,58.48,0,0,0-.66-8.72l-.61-4.68-.33-2.38-.16-.17-.09-.1-.09-.17-.2-.36-.22-.59-.12-.31c0-.1-.09-.3-.13-.45l-.28-1c0-.11-.11-.46-.16-.68l-.18-.76c-.2-.76-.55-2.62-.86-4.13l-10.64,11.44-4.59,4.85-1.15,1.21c-.35.36-.63.58-.95.88l-1.86,1.67-1.87,1.68-.93.84c-.31.29-.57.44-.86.67l-3.36,2.52a33.66,33.66,0,0,1-3.29,2.2c-1.08.66-2.16,1.41-3.25,2l-1.63.88-1.53.76c-.5.26-1,.47-1.53.7-1,.47-2.06.87-3.11,1.27s-2.09.73-3.14,1.08-2.13.64-3.18.85a47.87,47.87,0,0,1-6.41,1.06,46.62,46.62,0,0,1-6.47.12,40.87,40.87,0,0,1-12.38-2.49c-.86-.39-2.29-1-4.07-1.92a36.39,36.39,0,0,1-6.07-4.13,14.07,14.07,0,0,1-1.23-1.21,6.3,6.3,0,0,1-.68-.87.14.14,0,0,1,0-.07s0,0,.05,0h0s.05,0,0,0h-.06l.1,0,.25-.08a17.68,17.68,0,0,1,2.58-.52c.52-.07,1-.13,1.6-.17s1.12-.08,1.88-.11l4.33-.21c2.92-.14,5.93-.25,9-.34,6.15-.19,12.58-.28,19.18-.27s13.38.15,20.24.4l5.17.22,6.15.31,21.2,1.43q-1.38-10.38-2.75-20.74c-.11-.87-.24-1.7-.36-2.53l-.22-1.4-.39-2.62q-.41-2.61-.8-5.21l-1.76-10.3c-.64-3.38-1.27-6.74-1.89-10-2.61-13.21-5.55-25.58-8.43-36.42s-5.65-20.15-7.95-27.29S7410.34,7323.7,7409.58,7321.52Z" transform="translate(-6650.78 -6926.91)"/><path class="cls-1" d="M7462.58,7044.69l-.13.82C7462.88,7045.54,7462.91,7044.29,7462.58,7044.69Z" transform="translate(-6650.78 -6926.91)"/><path class="cls-1" d="M7422.34,7437.72l.81.07c-1.22-.28-2.34-.56-3.35-.82C7420.57,7437.21,7421.42,7437.47,7422.34,7437.72Z" transform="translate(-6650.78 -6926.91)"/><path class="cls-1" d="M7390.64,7180.74c-3.37,5.22-5,8.08-5.72,9.38s-.51,1.09,0,.36C7387.19,7186.56,7389.25,7183.21,7390.64,7180.74Z" transform="translate(-6650.78 -6926.91)"/><path class="cls-1" d="M7401,7003.74c-2.08,3.13-2.48,4.25-2.26,4s.41-.57.84-1.21l1.7-2.3a46.78,46.78,0,0,1,5.82-7.19c.82-.8,1.42-1.46,1.91-1.85s.73-.62.73-.62A47.62,47.62,0,0,0,7401,7003.74Z" transform="translate(-6650.78 -6926.91)"/><path class="cls-1" d="M7427.16,6991.4c-.66.26-1.33.49-2,.79C7429,6991.24,7428.86,6991.19,7427.16,6991.4Z" transform="translate(-6650.78 -6926.91)"/><path class="cls-1" d="M7117.92,7382.66a.42.42,0,0,0,0-.1C7117.88,7382.62,7117.89,7382.65,7117.92,7382.66Z" transform="translate(-6650.78 -6926.91)"/><path class="cls-1" d="M7102.19,7400.56l.15-.24C7102.22,7400.46,7102.19,7400.53,7102.19,7400.56Z" transform="translate(-6650.78 -6926.91)"/><path class="cls-1" d="M7127.25,7371.87v0l.65-.76Z" transform="translate(-6650.78 -6926.91)"/><path class="cls-1" d="M7069.16,7439.17l.2-.25A1.66,1.66,0,0,0,7069.16,7439.17Z" transform="translate(-6650.78 -6926.91)"/><path class="cls-1" d="M7088.77,7416.32a2.27,2.27,0,0,1-.2.35C7088.69,7416.52,7088.79,7416.4,7088.77,7416.32Z" transform="translate(-6650.78 -6926.91)"/><path class="cls-1" d="M7133.7,7367.43l-.37.22C7133.39,7367.69,7133.53,7367.62,7133.7,7367.43Z" transform="translate(-6650.78 -6926.91)"/><path class="cls-1" d="M7142.52,7355.94h-.05S7142.49,7356,7142.52,7355.94Z" transform="translate(-6650.78 -6926.91)"/><path class="cls-1" d="M7138.46,7359.92a3.59,3.59,0,0,0-.21.35C7138.36,7360.13,7138.5,7360,7138.46,7359.92Z" transform="translate(-6650.78 -6926.91)"/><path class="cls-1" d="M7138.15,7360.44l.1-.17C7138.18,7360.36,7138.13,7360.43,7138.15,7360.44Z" transform="translate(-6650.78 -6926.91)"/><path class="cls-1" d="M6933.49,7560a4.23,4.23,0,0,0-1,.64Z" transform="translate(-6650.78 -6926.91)"/><path class="cls-1" d="M7039.46,7474.19l0-.11C7039.44,7474.16,7039.44,7474.19,7039.46,7474.19Z" transform="translate(-6650.78 -6926.91)"/><path class="cls-1" d="M6933.51,7561.38l-.28.1A1.51,1.51,0,0,0,6933.51,7561.38Z" transform="translate(-6650.78 -6926.91)"/><path class="cls-1" d="M7129.09,7373.57c-.16.41-.84,1-.73,1C7128.63,7374.26,7129.11,7373.84,7129.09,7373.57Z" transform="translate(-6650.78 -6926.91)"/><path class="cls-1" d="M7037,7485l-.18.21Z" transform="translate(-6650.78 -6926.91)"/><path class="cls-1" d="M6933.51,7561.38l.32-.11-.12,0A.86.86,0,0,1,6933.51,7561.38Z" transform="translate(-6650.78 -6926.91)"/><path class="cls-1" d="M7006.62,7508.7v0l.05-.08Z" transform="translate(-6650.78 -6926.91)"/><path class="cls-1" d="M7004.63,7510.27l.36-.41A1.38,1.38,0,0,0,7004.63,7510.27Z" transform="translate(-6650.78 -6926.91)"/><path class="cls-1" d="M6932.53,7560.67l-.55.37A3.77,3.77,0,0,0,6932.53,7560.67Z" transform="translate(-6650.78 -6926.91)"/><path class="cls-1" d="M6984.28,7528.23l.18-.17A1.56,1.56,0,0,0,6984.28,7528.23Z" transform="translate(-6650.78 -6926.91)"/><path class="cls-1" d="M7090.07,7414.88l.17-.15S7090.2,7414.69,7090.07,7414.88Z" transform="translate(-6650.78 -6926.91)"/><polygon class="cls-1" points="430.05 504.9 430.05 504.9 430.05 504.91 430.05 504.9"/><path class="cls-1" d="M7081.34,7430.92a2.24,2.24,0,0,0-.51.89A2.89,2.89,0,0,0,7081.34,7430.92Z" transform="translate(-6650.78 -6926.91)"/><path class="cls-1" d="M7079.39,7433.43l.08-.08A.3.3,0,0,0,7079.39,7433.43Z" transform="translate(-6650.78 -6926.91)"/><path class="cls-1" d="M7092.61,7418h0s0,0,0,0Z" transform="translate(-6650.78 -6926.91)"/><path class="cls-1" d="M7090.05,7421.09a1.12,1.12,0,0,0-.23.18A1,1,0,0,0,7090.05,7421.09Z" transform="translate(-6650.78 -6926.91)"/><path class="cls-1" d="M7073.3,7441.4h0v0Z" transform="translate(-6650.78 -6926.91)"/><path class="cls-1" d="M7049.68,7471.18c2.41-3,5.41-6.91,7.91-9.75a13.51,13.51,0,0,1,1.79-2.71l.38.15.55-.85c.35-.24-.44.64.14.18l.06-.45c.15,0,1.72-1.92.85-.45l2.51-3c.56-.66.08-.59.76-1.27.21-.07-.16.32,0,.34,2.05-2,1.54-3,3.38-5l-.1.21c.21-.42.77-1.08.73-1.12-.51,0-.14.5-.84,1-.2-.27.52-.9.29-1a5.72,5.72,0,0,0,.92-1.23c.75-.59,1.49-1.71,2.13-2.08a6.47,6.47,0,0,1,.9-1.78c.65-.37.09.29.77-.39l-.05-.24c.52-.58.48-.45.53-.37.54-.64.25-.7,1-1.43l-.23.57a16.47,16.47,0,0,1,1.37-1.69c.07.09-.22.42-.44.64.59-.27.54-.85.77-1.08-.12,0-.63.57-.54.17.37-.39.53-1,1-1.19l-.23.57c.6-1,.2-.62,1.07-1.56,0,.07,0,.07,0,.12a11.89,11.89,0,0,1,2-2.37l-.11.21a9.82,9.82,0,0,1,.48-.92c-.52.46-.45.28-.63.21.82-.5.61-1.3,1.69-2.31.07.09-.05.44-.4.68a2.78,2.78,0,0,1-.37,1.6c.3-.48.69-1,.7-.82l-.12-.32c.21-.27.4-.46.56-.66,0-.23-.67.33-.26-.35s.53-.17.52-.36c.69-1,.08-.59.9-1.43a1.1,1.1,0,0,1-.25.37c.63-.56,1.28-1.62,1.72-1.58,0,.15.05.24-.18.46l0,0c-.4.87.44-.64.5-.21-.19-.08.6-1,1-1.34h-.28c.63-1.79.27.35,1.33-1.06.6-.95-.32.29,0-.33a10.39,10.39,0,0,0,1.48-1.56c.26-.18.75-.58,1-.47.35-.57,1.39-1.49,1.45-1.93-.89.75-.54,1-1.64,1.86l.06-.44c.6-.7,1.27-1.69,1.74-2.12-.12.07-.2.07-.19,0a20.1,20.1,0,0,1,1.71-2.45c.28,0-.23.56-.57,1,.67-.53.57-.66,1.44-1.6.19.07-.56.66-.51.89l.86-1.13,0,0c-.11-.36.72-.81,1.2-1.54a9.63,9.63,0,0,0,1.72-3.14c.27-.18.39-.19.37,0-.44.3-.29.3-.34.49.42-.56,1.21-1,1.06-.59.64-.91-.38.2,0-.38l1-1.15c-.24,0-.61.42-.2-.27a18,18,0,0,1,1.17-1.41c0,.15.37,0-.05.44a2.6,2.6,0,0,0,.77-1.07c-.72.63.88-1.28.24-.9l.72-.63c-.14.16-.08.25-.3.47.36,0,.44-.63.63-.9s.82-.88.94-.87c.13-.27.64-.8.83-.82.24-.38-.1-.13-.08-.28l1-1.15c.16,0,.53.17.43.38.26-.52-.19-.41.38-1.07-.12.55.88-.74.67,0a8.39,8.39,0,0,0,1.8-2c.15-.51-.62.57-.76.39,1.34-1.73,1-2.21,2.07-3.38l-.32.28a5,5,0,0,0,.73-1.3c0,.38,1.28-.41,2.29-1.71,0-.19-.79.54-.78.2l.67-.86c.06,0,0,.07,0,.2.55-.81,1.43-1.17,1.37-1.59l.94-.51-.38.19c0-.19.65-1,.76-1.26a4.23,4.23,0,0,1,1.47-1.55c-.21.07-.71.28-.18-.42.33.29,1.3-1.31,1.46-1.15.22-.27.73-.67.62-.82l.17.22c-.24-.31.6-1.29,1.19-2.09.25.5.66-.87,1.31-.9-.15-.37,1-1.45.9-1.77.48-.6.68-.33.89-.41l.13-.36a23.24,23.24,0,0,0,1.94-1.86l.27-.8.29-.14c0-.15.41-.68.06-.44l.29-.32c-.24-.24.31-.52.75-1.27.17-.12.2,0,.12.14.27-.32.29-.07.52-.18-.26.18.53-1.57-.33-.78-.16,0,.2-.61.51-.9h.4l.08-.59c.39-.54.72-.63,1.08-1-.33.43-.33,1.3.57.21a8.16,8.16,0,0,0-.74,1.32c.19-.22.31-.31.12.12.63-.91.09-.4.76-1.26.17.22.43,0,1.11-.63l-.61.42a.5.5,0,0,1,0-.16c-.19.19-.28.23-.39.2.14-.16.55-1.18.79-1.22-1,.57,1-1.68.33-1.3,0-.15.5-.74.65-.72-.42.83.68-.33.73-.09.16-.31-.61.42-.4,0a3.61,3.61,0,0,1,1-.81l-.11.21.63-.57c0-.19-.7.48-.25-.16.17-.12.61-.76.68-.67-.09.4.27.36-.12.89.34-.43,1.43-1.79.78-1.41l.43-.5c-.35.25-1.25,1-.44,0l0,.05.42-.83.36-.22c-.06,0,0-.18.21-.44.12,0,.34-.24.41-.15.62-.76.46-.79.48-.94.34-.43.51-.55.47-.25a18.4,18.4,0,0,1,1.76-1.88c.55-.85-.18.12.06-.45.91-.36,2.26-2.43,3.26-3.72-.6.07.25-.38.15-.85-.12.36,1.24-1,.41.19l.53-.7c.56-.31-.79,1.22,0,.72.62-.76.68-1.54,1.54-2.33,0,.49.49-.74.56-.32a2.79,2.79,0,0,1-.5.75l.18-.12c1.44-1.6.13-.7.7-1.7.81-1,.83-.64,1-.61a4,4,0,0,0,.72-1c-.37.73-1.08,1-1,.62.62-.23,1.26-1.48,1.39-1.84-1.47,1.21-.84,1-2.26,2.09-.07.26.19.42-.58,1.15.31-.6-.16-.07-.32,0,.26,0-.41.61-.56.9-.3.13.1-.74-.64,0l.18.42c-.31.28-.11-.33-.61.42.15-.51-.34-.1.38-1.07-1.19.88-1.27,1.81-1.87,2.77.05-.11,0-.15.07-.26a3.53,3.53,0,0,1-.54.85c-.55.51.23-.56,0-.49l-.75.93s0,0-.05,0c-.15.28-.32.53-.47.55a6.76,6.76,0,0,0,.19-.8l-.59,1.14c0-.19-.84.65-.34-.1l-1.14,1.46-.31,0c-.25.37-.22.41.15,0-.46.44-1.43,2.46-1.63,1.86-.76,1.26-1.17,1.61-2.19,3.05.68-1.2-1.24,1-.41-.19-.63.57-.51.89-.9,1.43s-.52,0-.16-.56l-.41.69,0-.05-.32.62c-.57.47-.31-.05-.81.5l.08.28-.44.3c.21-.08,0,.3-.37.73l0-.05-.39.54c.3-.6-.43.43-.37.09-.37.43-.38.44-1,1.25l.24,0c-.74,1.12-.22-.11-.92.71l.19.07c-1.24,1-1.55,2.14-2.45,2.89.39-.53.11-.55.15-.5a28,28,0,0,0-2.13,2.94c-.46.11-.57.13-1.34.86-.48.6-.53.7-.57,1-.56.5-1.33,1.68-1.5,1.57,0,.24-.45.5-.61.9h-.12l.19.07c-1.17.74-1.24,1.86-2.37,2.64l.1-.2-.3.47c-.12,0,0-.19-.08-.28l-1.69,2,.44-.3a5.68,5.68,0,0,1-.92,1.24c.45-1-.56.65-.83.64l.3-.48c-.48.6-.48.6-.29.67-.58.8-.71.29-1.14,1.12l.42-.49c.21-.08,0,.38-.25.71-.09.06-.35.24-.15,0-.44.65-1.27,1.48-1.43,1.79s-.33.09-.22-.12c-.94,1.39-.51.56-1.45,1.94l-.06-.09-.27.52-.7.48.3-.13a10.51,10.51,0,0,1-.95,1.19l0-.3c-.92,1.24-1.35,1.2-2.11,2.46-.09.06,0-.14.07-.25-.67,1.2-.87.6-1.51,1.85,0-.1-.13,0-.14-.1l-.31.55-.14-.18-.08.59-.41.15-.08.26c-.74.24-1.1,1.16-1.92,1.66l.31.05c-1,2.13-3.6,3.82-5.17,6.11l-.13-.17-.54,1c-.52.36.1-.4-.11-.33-.69,1-.08.6-.94,1.73-.58.46,0-.3.2-.61a27.49,27.49,0,0,1-2.63,3.32s0,.11,0,.08c-.5.74-1.32,1.58-1.94,2.34-.06-.08.09-.28.23-.48a3.57,3.57,0,0,0-.71.88l.09-.4c-.51.55-1.31,1.77-1.58,1.76.12,0,.22.12-.2.61-.49.06-1,1.44-1.83,2.13,0-.15.5-.74.36-.58a3.4,3.4,0,0,0-.8,1.22v-.19l-1.41,2c-.49.06-1.43,1.79-1.51,1.51-.56.65.58-.47-.09.4-.3.13-.59.8-.72.63l.05-.11-.47.6.14-.51c-.38.54-.53,1-.43,1.17-.49.41-1,1.15-1.31,1.25l.11-.21c-1.06,1.4-2.31,1.85-2.91,3.15-.09.06-.12,0,0-.15l-.71.82.05-.3-1,1.54-.07-.09c-.79.89-1.93,2.35-2.87,3.54l.1-.21c-.93,1.39-1.1,1.17-1.79,2.18a.33.33,0,0,1,.05-.12l-.69.84.07-.25c-.34.77-1.71,1.59-1.24,1.33a6.05,6.05,0,0,0-.61,1.29c-.75.93-.29.14-.83.65a17.71,17.71,0,0,1-1.34,1.73l-.07-.09c-.33.43-.49.74-1,1.34l.1-.21c-.61,1.1-1.23,1-1.49,2-.4.35-1,1.15-1.11,1-.88,1.28-1.61,2.24-2.53,3.47-.43,0-.19.27-.94.85l.19.07c-1.38,1.68-3.34,3.29-4.82,5.17l-.19-.07-.14.51c-1.74,1.9-4,4.38-5.29,6a12.93,12.93,0,0,1-1.59,2.27l0-.11a46.17,46.17,0,0,1-3.77,4.48c0-.15-.15,0,0-.24-.16.5-.78.9-1.07,1.23l.45-.29a2.91,2.91,0,0,1-1.22,1.19l-.45.82c-.05,0-.13.08-.17.07l0,.19-.5.2a7.25,7.25,0,0,0-.93,1.59c-.12,0-.73.61-.33.09-.74.82-1.49,1.64-2.26,2.44l.42-.33c.18.08-.4.9-.81,1.23.34-.61-.16-.22-.46-.1-.23.4.39-.18.3.07a7.14,7.14,0,0,1-1.31,1.61l.18-.31c-.47.62-.95.67-1.45,1.24-.35.61-.79.89-.45,1-.62.78-.42.14-.66.35a4.14,4.14,0,0,1-1.44,1.43c0,.72-1.91,1.85-1.75,2.27l-.72.44c.06.09.13.37-.29.88s-.55.14-.76.2v.57a58.34,58.34,0,0,0-4.29,4.15,53,53,0,0,1-4.47,4.32c-1.16,1.3-2.57,3-4.05,4.39l.13-.19-1.5,1.35,1.16-.91a10.61,10.61,0,0,1-.77,1,72.18,72.18,0,0,0-5.8,5.37c-1,1.56-1.14.51-2.13,1.93.07-.13.07-.22.13-.34-1.22,1.36-1.87,2.12-3,3.55-.15-.47-.88.8-.92.51v.24c-.38.19-1.12.79-1.11.6l-.44.71-.18-.1c-.81.7-2.42,2.33-3.1,2.41a42.27,42.27,0,0,1-3.47,3.34c-1.37,1.14-2.85,2.29-4.15,3.31a9.59,9.59,0,0,1-1.57,1.53l-.77.34a8.41,8.41,0,0,1-1.65,1.62.11.11,0,0,1,0-.1,13.64,13.64,0,0,0-1.68,1.51c-.69.51-1.43.91-1.35.58.16.35-1.48,1-1.48,1l-5.68,4.12c-1.72,1.27-3.87,2.59-6.15,4.14s-4.72,3.25-7.38,4.78c-10.29,6.73-22.57,12.52-27.07,15.63-.25.31-1.12.84-.68.89-.68.38-1.13.22-1.19.45,1-.31-.12.58.91.38l-.58.31c-.08.18.76-.51.7-.22l0-.4a2.4,2.4,0,0,1,1-.19c.41-.33.51-.9,1.69-1.2l-.3.16c.89-.42.64,0,.85-.07l-.2.08.82-.17c-.61.14-1.44.83-1,.59,1.11-.39-.31,0,.47-.35.49-.24.43,0,.45.1l.89-.41c0,.16-.6.25-.17.24l1.05-.66c.38.28,1.14-.73,1.82-.6-.77.45.13.09.06.27l2-.92c.21,0-.47.35-.17.2s.57-.37.77-.45a4.14,4.14,0,0,0,.83-.3c.34-.16.66-.28.69-.15,1.39-.52.4-.59,1.68-1.09.24.06-.94.54-.33.41l1.24-.72a1,1,0,0,1-.62.58c3.52-1.59,5.79-1.8,8.82-3.65.53-.08-.25.3-.51.57,2.11-1.49,3.33-1.47,5.21-2.61l-.05-.16a32.51,32.51,0,0,0,4.4-2.28c.74-.44,1.51-.88,2.24-1.35s1.48-1,2.22-1.4l-.4.13a10.9,10.9,0,0,1,1.36-1.21c.12,0-.15.52.64-.1-.2.07-.58.25-.52.12a62,62,0,0,0,5.44-3.27c1.08-.67,2.16-1.46,3.22-2.23s2.14-1.53,3.14-2.22c1.3-1,2.65-2,4-3s2.68-2.11,4-3.16c2.66-2.15,5.39-4.2,7.78-6.38-.73.67-.68.08-.07-.34,2-.83,2.56-2.42,4.42-3.45,1.33-1.33,2.74-2.44,4.07-3.57a28.61,28.61,0,0,0,3.65-3.73l.18.09c.44-.29.45-.49.84-.88l0,0c1-.84,2-2.06,2.6-2.51l-.12-.19c.55-.54.41-.15.89-.78l.06.09.53-.78c.2.33,1.55-1.52,2.1-1.84a41.25,41.25,0,0,1,3-3.23,20.33,20.33,0,0,0,2.55-2.15c1.61-1.64,3.77-4.11,5.84-6.18l-.22-.13.51-.56s.12,0,.06.09c.61-.24,1.15-1.34,1.7-1.67-.43.13-.4.36-.7.68-.51.37-.28-.22.39-.76l0,0,.3-.51c.19.09.61-.23.8-.15,1.7-1.85,2.57-3.37,4.38-5.22,0,.34,1.21-1.42,1.14-.78.94-1.25-.4,0-.12-.71.3-.32.53-.73.68-.7-.07.22.41-.11.2.18l.67-.79c.09-.06,0,.15-.08.25,1.25-1.72,2.71-2.61,3.78-4.19,0-.2-.52.54-.53.35,1.05-1.62,1.29-1.11,2.32-2.58l-.1.4a3.39,3.39,0,0,1,1.06-1.43c.27,0-.4.73-.62,1.14.44-.49,1.47-1.76,1-1.51a4.19,4.19,0,0,1,1.12-1s-.59.45-.37,0c.79-.71,1.86-1.95,2.73-2.91,0,0,.16,0,.1.13C7048.5,7471.9,7048.8,7472.3,7049.68,7471.18Z" transform="translate(-6650.78 -6926.91)"/><path class="cls-1" d="M7093,7417.6l-.36.38s.06.09,0,.31Z" transform="translate(-6650.78 -6926.91)"/><path class="cls-1" d="M7077.06,7436.51a1.42,1.42,0,0,0-.08.18C7077.06,7436.59,7077.07,7436.54,7077.06,7436.51Z" transform="translate(-6650.78 -6926.91)"/><path class="cls-1" d="M7073.52,7441.37c.24-.36-.05-.1-.22,0C7073.32,7441.43,7073.37,7441.46,7073.52,7441.37Z" transform="translate(-6650.78 -6926.91)"/><path class="cls-1" d="M7101.48,7406.48c0,.08-.06.14,0,.16S7101.51,7406.48,7101.48,7406.48Z" transform="translate(-6650.78 -6926.91)"/><path class="cls-1" d="M7126.35,7376.85l-.12.1A.31.31,0,0,0,7126.35,7376.85Z" transform="translate(-6650.78 -6926.91)"/><path class="cls-1" d="M7124.72,7378.28a3.16,3.16,0,0,0-.26.36A1.57,1.57,0,0,0,7124.72,7378.28Z" transform="translate(-6650.78 -6926.91)"/><path class="cls-1" d="M7095.54,7413.74a1.16,1.16,0,0,0-.21.35A.93.93,0,0,0,7095.54,7413.74Z" transform="translate(-6650.78 -6926.91)"/><path class="cls-1" d="M7124.21,7379l-.36.4,0,0Z" transform="translate(-6650.78 -6926.91)"/><path class="cls-1" d="M7126.81,7376.35c-.14.16-.33.38-.46.5A1.76,1.76,0,0,0,7126.81,7376.35Z" transform="translate(-6650.78 -6926.91)"/><path class="cls-1" d="M7110.35,7395.39l0,0C7110.12,7395.82,7110.26,7395.59,7110.35,7395.39Z" transform="translate(-6650.78 -6926.91)"/><polygon class="cls-1" points="472.21 454.16 472.16 454.21 472.11 454.37 472.21 454.16"/><path class="cls-1" d="M7128.36,7374.61a1.18,1.18,0,0,0-.14.23l.22-.21A.15.15,0,0,1,7128.36,7374.61Z" transform="translate(-6650.78 -6926.91)"/><path class="cls-1" d="M7115.79,7389.38c0-.17,0-.25,0-.28C7115.68,7389.24,7115.63,7389.35,7115.79,7389.38Z" transform="translate(-6650.78 -6926.91)"/><path class="cls-1" d="M6997.07,7137.54a.52.52,0,0,1,.06-.42c.55-1.49,2.27-4,5.64-1.43a2,2,0,0,1,.36.42q1.2,5.13,2.09,10.27c1.25,7,2.21,14,3.22,20.9l.84,5.67s.76,9.4,1.13,16c.44,5.62.2,7.42-.53,7s-1.87-3.15-2.89-6.53c0,.37-1.1-3.7-2.07-7.89s-1.89-8.48-1.89-8.48l-.73-4.89c-1-7-2-13.88-3.2-20.7C6998.51,7144.13,6997.85,7140.81,6997.07,7137.54Z" transform="translate(-6650.78 -6926.91)"/></svg>
